<svg xmlns="http://www.w3.org/2000/svg" xmlns:xlink="http://www.w3.org/1999/xlink" width="326" height="101" viewBox="0 0 326 101">
  <defs>
    <clipPath id="clip-path">
      <rect id="Rectangle_4798" data-name="Rectangle 4798" width="106.454" height="91.268" fill="none"/>
    </clipPath>
    <clipPath id="clip-path-3">
      <rect id="Rectangle_4793" data-name="Rectangle 4793" width="76.087" height="4.843" fill="none"/>
    </clipPath>
    <clipPath id="clip-path-4">
      <path id="Path_17862" data-name="Path 17862" d="M246.577,699.587c-.624.1-1.423.433-1.335,1.059.054.385.441.622.794.785,2.879,1.331,6.165,1.422,9.335,1.3,5.043-.195,10.058-.869,15.1-1.081,14.91-.63,29.988,2.767,44.679.144a16.632,16.632,0,0,0,4.57-1.349c.822-.412,1.68-1.124,1.6-2.04q-15.142-.221-30.285-.345c-9.364-.077-18.731-.186-28.089.015a114.6,114.6,0,0,0-16.366,1.513" transform="translate(-245.235 -697.959)" fill="none"/>
    </clipPath>
    <linearGradient id="linear-gradient" x1="-0.397" y1="0.753" x2="-0.396" y2="0.753" gradientUnits="objectBoundingBox">
      <stop offset="0" stop-color="#272525"/>
      <stop offset="1" stop-color="#fff"/>
    </linearGradient>
    <clipPath id="clip-path-5">
      <rect id="Rectangle_4795" data-name="Rectangle 4795" width="64.332" height="3.936" fill="none"/>
    </clipPath>
    <clipPath id="clip-path-6">
      <path id="Path_17863" data-name="Path 17863" d="M87.219,616.833a2.037,2.037,0,0,0-.839.665,1.621,1.621,0,0,0,.733,2.12,4.706,4.706,0,0,0,2.441.412l42.479-.477c4.592-.052,9.189-.1,13.764-.507,1.822-.161,3.939-.578,4.739-2.223a33.688,33.688,0,0,0-6.75-.226q-11.6.373-23.2.4t-23.2-.3a25.369,25.369,0,0,1-5.742-.389,6.008,6.008,0,0,0-4.417.531" transform="translate(-86.202 -616.097)" fill="none"/>
    </clipPath>
    <linearGradient id="linear-gradient-2" x1="-0.161" y1="3.661" x2="-0.159" y2="3.661" xlink:href="#linear-gradient"/>
    <clipPath id="clip-path-7">
      <rect id="Rectangle_4796" data-name="Rectangle 4796" width="8.953" height="4.929" fill="none"/>
    </clipPath>
    <clipPath id="clip-path-8">
      <rect id="Rectangle_4798-2" data-name="Rectangle 4798" width="59.127" height="50.693" fill="none"/>
    </clipPath>
    <clipPath id="clip-path-10">
      <rect id="Rectangle_4793-2" data-name="Rectangle 4793" width="42.261" height="2.69" fill="none"/>
    </clipPath>
    <clipPath id="clip-path-11">
      <path id="Path_17862-2" data-name="Path 17862" d="M286.751,698.863c.347.057.79.24.741.588-.03.214-.245.346-.441.436a11.27,11.27,0,0,1-5.185.722c-2.8-.108-5.586-.482-8.387-.6-8.281-.35-16.656,1.537-24.816.08a9.236,9.236,0,0,1-2.538-.749c-.456-.229-.933-.625-.887-1.133q8.41-.123,16.821-.192c5.2-.043,10.4-.1,15.6.008a63.652,63.652,0,0,1,9.09.84" transform="translate(-245.235 -697.959)" fill="none"/>
    </clipPath>
    <linearGradient id="linear-gradient-3" x1="1.397" y1="0.753" x2="1.396" y2="0.753" xlink:href="#linear-gradient"/>
    <clipPath id="clip-path-12">
      <rect id="Rectangle_4795-2" data-name="Rectangle 4795" width="35.732" height="2.186" fill="none"/>
    </clipPath>
    <clipPath id="clip-path-13">
      <path id="Path_17863-2" data-name="Path 17863" d="M121.37,616.506a1.131,1.131,0,0,1,.466.37.9.9,0,0,1-.407,1.177,2.613,2.613,0,0,1-1.356.229l-23.594-.265c-2.551-.029-5.1-.058-7.645-.282-1.012-.089-2.188-.321-2.632-1.235a18.71,18.71,0,0,1,3.749-.125q6.442.207,12.888.22t12.888-.168a14.089,14.089,0,0,0,3.189-.216,3.337,3.337,0,0,1,2.453.295" transform="translate(-86.202 -616.097)" fill="none"/>
    </clipPath>
    <linearGradient id="linear-gradient-4" x1="1.161" y1="3.661" x2="1.159" y2="3.661" xlink:href="#linear-gradient"/>
    <clipPath id="clip-path-14">
      <rect id="Rectangle_4796-2" data-name="Rectangle 4796" width="4.973" height="2.738" fill="none"/>
    </clipPath>
  </defs>
  <g id="Group_34435" data-name="Group 34435" transform="translate(-249 -329)">
    <path id="e91095e17d59a5f6ef1b9034ac30276c" d="M9,0H317a9,9,0,0,1,9,9v92a0,0,0,0,1,0,0H0a0,0,0,0,1,0,0V9A9,9,0,0,1,9,0Z" transform="translate(249 329)" fill="#f2fff8"/>
    <g id="Group_34433" data-name="Group 34433" transform="translate(466.547 337.732)">
      <g id="Group_34432" data-name="Group 34432" clip-path="url(#clip-path)">
        <g id="Group_34431" data-name="Group 34431">
          <g id="Group_34430" data-name="Group 34430" clip-path="url(#clip-path)">
            <g id="Group_34421" data-name="Group 34421" transform="translate(30.366 86.425)" opacity="0.2" style="mix-blend-mode: multiply;isolation: isolate">
              <g id="Group_34420" data-name="Group 34420">
                <g id="Group_34419" data-name="Group 34419" clip-path="url(#clip-path-3)">
                  <g id="Group_34418" data-name="Group 34418" transform="translate(0 0)">
                    <g id="Group_34417" data-name="Group 34417" clip-path="url(#clip-path-4)">
                      <rect id="Rectangle_4792" data-name="Rectangle 4792" width="76.246" height="6.544" transform="translate(-0.082 -0.087)" fill="url(#linear-gradient)"/>
                    </g>
                  </g>
                </g>
              </g>
            </g>
            <g id="Group_34426" data-name="Group 34426" transform="translate(10.674 76.289)" opacity="0.2" style="mix-blend-mode: multiply;isolation: isolate">
              <g id="Group_34425" data-name="Group 34425">
                <g id="Group_34424" data-name="Group 34424" clip-path="url(#clip-path-5)">
                  <g id="Group_34423" data-name="Group 34423" transform="translate(0)">
                    <g id="Group_34422" data-name="Group 34422" clip-path="url(#clip-path-6)">
                      <rect id="Rectangle_4794" data-name="Rectangle 4794" width="64.603" height="4.147" transform="translate(-0.271 -0.203)" fill="url(#linear-gradient-2)"/>
                    </g>
                  </g>
                </g>
              </g>
            </g>
            <path id="Path_17864" data-name="Path 17864" d="M15.574,71.263a23.044,23.044,0,0,0-8.048.914,7.374,7.374,0,0,0-3.195,2.016,12.544,12.544,0,0,0-2.06,3.285A21.439,21.439,0,0,0,.478,86.065c-.049,3.157.3,6.309.333,9.467.03,3.205-.11,6.411-.389,9.6-.241,2.753-.761,5.643-.1,8.371.605,2.491,2.621,5.057,4.99,3.679,2.241-1.3,2.485-5.008,2.536-7.57.063-3.154-.364-6.312-.09-9.462a10.872,10.872,0,0,1,1.1-4.2,1.919,1.919,0,0,1,1.126-1.042,1.892,1.892,0,0,1,.932.042,10.54,10.54,0,0,0,1.047.206.642.642,0,0,0,.532-1.071A3.878,3.878,0,0,0,11,93.066a2.44,2.44,0,0,0-1.8.032A4.565,4.565,0,0,0,7.03,95.687a19.926,19.926,0,0,0-1.066,7.846,60.53,60.53,0,0,1,.047,8.08,6.2,6.2,0,0,1-1.131,3.5c-.729.764-1.566.5-2.158-.326-1.36-1.9-1.026-4.857-.785-7.115.319-2.984.595-5.964.7-8.97.1-3.04.012-6.063-.121-9.1a27.835,27.835,0,0,1,.567-8.459c.675-2.518,1.956-5.383,4.162-6.416a13.1,13.1,0,0,1,3.939-.958,26.267,26.267,0,0,1,4.39-.173c1.282.055,1.28-2.279,0-2.332" transform="translate(0 -62.413)" fill="#afd9c4"/>
            <path id="Path_17865" data-name="Path 17865" d="M84.126,244.415a1.319,1.319,0,0,0-.8-.562,5.884,5.884,0,0,0-1.227-.235c-.8-.187-1.6-.364-2.395-.546-.588-.135-1.438-.457-1.9.154a3.473,3.473,0,0,0-.473,2.291c.112.7.807.956,1.4,1.1-.038.235-.1.469-.161.7a3.492,3.492,0,0,0-.127,1.126,1.492,1.492,0,0,0,.446,1,1.921,1.921,0,0,0,.727.345l.859.266a.884.884,0,0,1,.432.231,1.078,1.078,0,0,1,.191.537c.072.434.018,1.022.429,1.159a4.273,4.273,0,0,0,1.624-.049.832.832,0,0,0,.6-.262.98.98,0,0,0,.145-.373,13.813,13.813,0,0,0,.253-2.624q.053-1.643.106-3.285a1.886,1.886,0,0,0-.139-.967M80.9,249.343a.382.382,0,0,1-.159.246.323.323,0,0,1-.212,0c-.768-.175-1.9-.3-1.792-1.441a2.963,2.963,0,0,1,.323-.978.3.3,0,0,1,.069-.1.253.253,0,0,1,.116-.045,2.487,2.487,0,0,1,.971-.061,1.028,1.028,0,0,1,.77.6,1.492,1.492,0,0,1,.087.512,3.924,3.924,0,0,1-.173,1.276" transform="translate(-67.731 -212.793)" fill="#2ba27c"/>
            <path id="Path_17866" data-name="Path 17866" d="M96.611,320.4a.593.593,0,0,1-.191.473,2.031,2.031,0,0,1-1.058.257,38.288,38.288,0,0,1-4.01.037,1.593,1.593,0,0,1-.631-.113.573.573,0,0,1-.244-.266,4.4,4.4,0,0,1-.4-1.916A74.379,74.379,0,0,1,90.3,308.6a1.065,1.065,0,0,1,.272-.729,3.9,3.9,0,0,1,2.316-.552c.957-.037,3.508-.433,3.97.187.192.257-.009.787-.006,1.06.006.537.022,1.075.028,1.612q.037,3.255-.083,6.51-.069,1.86-.188,3.719" transform="translate(-78.853 -269.122)" fill="#f0f0f0"/>
            <path id="Path_17867" data-name="Path 17867" d="M116.253,66.788a.825.825,0,0,1-.145.521,1.193,1.193,0,0,1-.807.284,20.193,20.193,0,0,1-3.056.04.894.894,0,0,1-.481-.125.6.6,0,0,1-.186-.294,6.747,6.747,0,0,1-.3-2.111q-.186-5.663.17-11.326a1.514,1.514,0,0,1,.207-.8,2.3,2.3,0,0,1,1.765-.608c.729-.041,2.674-.477,3.026.206.146.283-.007.867,0,1.168,0,.592.017,1.185.021,1.777q.028,3.587-.064,7.174-.052,2.049-.144,4.1" transform="translate(-97.44 -45.728)" fill="#f0f0f0"/>
            <path id="Path_17868" data-name="Path 17868" d="M164.73,75.378c-.348-.044-.67-.078-.961-.1-3.939-.229-7.879-.458-11.822-.586q-4.76-.155-9.522-.116c-2.266.019-5.949,1.171-7.292-1.093-2.734-4.609-1.059-13.785-1.051-19.031q0-.186,0-.372.032-18.631.063-37.262c.011-8.7-.605-16.779,7.235-16.779h26.6c3.905,0,6.5-.7,7.753,3.533,1.314,4.432.5,13.265.529,18.882q.1,18.551.192,37.1c.023,4.462.692,10.665-1.375,14.665-1.525,2.952-7.063,1.573-10.353,1.152" transform="translate(-117.029 0)" fill="#2ba27c"/>
            <path id="Path_17869" data-name="Path 17869" d="M160.754,576.869c-.923.418-2.375.048-3.144.048H121.268c-1.754,0-6.432,1.026-6.914-1.79a15.234,15.234,0,0,1-.161-2.271,7.624,7.624,0,0,1,.212-2.4c.592-1.892,2.417-1.074,3.729-1.074h39.888c1.21,0,3.233-.766,3.363,1.338l.217,3.5a5.259,5.259,0,0,1-.088,1.752,1.331,1.331,0,0,1-.761.893" transform="translate(-100.046 -498.724)" fill="#ebefeb"/>
            <path id="Path_17870" data-name="Path 17870" d="M176.5,287.439c-.851.418-2.19.048-2.9.048H140.1c-1.618,0-5.93,1.026-6.375-1.79a16.483,16.483,0,0,1-.149-2.271,8.245,8.245,0,0,1,.2-2.4c.546-1.891,2.229-1.074,3.438-1.074h36.776c1.116,0,2.981-.766,3.1,1.338q.1,1.752.2,3.5a5.691,5.691,0,0,1-.081,1.752,1.3,1.3,0,0,1-.7.893" transform="translate(-117.028 -245.133)" fill="#a5ccb8"/>
            <path id="Path_17871" data-name="Path 17871" d="M166.533,35.521a2.661,2.661,0,0,1,.422-1.836,2.546,2.546,0,0,1,1.569-.692,22,22,0,0,1,4.588-.075c8.043.414,16.039-.34,24.093-.4a3.362,3.362,0,0,1,2.472.641,6.409,6.409,0,0,1,.7,2.719,94.855,94.855,0,0,1,.354,12.75,4.855,4.855,0,0,1-.577,2.681,4.618,4.618,0,0,1-3.164,1.6,32.962,32.962,0,0,1-5.038.351c-4.658.071-9.317.017-13.975-.037l-6.184-.071c-1.154-.013-3.954.46-4.878-.39-.888-.817-.295-3.772-.291-4.88q.01-2.953-.011-5.906-.023-3.226-.082-6.451" transform="translate(-145.82 -28.488)" fill="#fff"/>
            <path id="Path_17872" data-name="Path 17872" d="M249.535,65.226s-1.111-5.181,5.328-7.963,7.827-4.292,7.827-4.292.509.045,0,1.363-1.733,9.629-5.734,10.892-6.447.641-7.421,0" transform="translate(-218.572 -46.412)" fill="#51924b"/>
            <path id="Path_17873" data-name="Path 17873" d="M230.352,103.829a.586.586,0,0,1-.218-1.129,2.616,2.616,0,0,0,1.17-.189c2.317-.881,7.538-3.33,10.1-6.3.213-.245.582-.857.827-.646s-.22.936-.432,1.181c-3.517,4.069-10.9,6.9-11.23,7.037a.573.573,0,0,1-.218.042" transform="translate(-201.315 -83.697)" fill="#73a56d"/>
            <path id="Path_17874" data-name="Path 17874" d="M241.762,608.113a6.13,6.13,0,0,0,5.026,4.661c1.953.172,3.8-.833,5.5-1.8a7.388,7.388,0,0,0,2.273-1.723,4.681,4.681,0,0,0-.5-5.77,8.547,8.547,0,0,0-5.607-2.5c-1.456-.149-4.767-.68-5.913.511-1.361,1.414-1.232,4.9-.775,6.626" transform="translate(-211.548 -526.342)" fill="#fff"/>
            <path id="Path_17875" data-name="Path 17875" d="M222.312,582.813a9.677,9.677,0,0,0,10.663,1.174,10.136,10.136,0,0,0,3.122-2.348,10.324,10.324,0,0,0,1.952-3.335,9.7,9.7,0,0,0-.431-7.86,8.653,8.653,0,0,0-5.123-3.737,15.415,15.415,0,0,0-8.608-.178,6.725,6.725,0,0,0-3.914,2.414,7.1,7.1,0,0,0-.957,2.035,11.83,11.83,0,0,0,3.3,11.834m.149-9.064a2.867,2.867,0,0,1,.185-1.251,2.022,2.022,0,0,1,1.562-.935,20.382,20.382,0,0,1,7.375-.644,3.2,3.2,0,0,1,2.021.95c.87,1.008.816,2.7.49,4.1-.375,1.609-1.133,3.241-2.428,3.858a4.98,4.98,0,0,1-2.023.352,11.436,11.436,0,0,1-3.628-.269,4.675,4.675,0,0,1-2.934-2.391,8.815,8.815,0,0,1-.619-3.767" transform="translate(-191.497 -495.916)" fill="#333133"/>
            <path id="Path_17876" data-name="Path 17876" d="M269.221,619.387a3.8,3.8,0,0,1,2.514-.709,10.709,10.709,0,0,1,2.371.281,1.362,1.362,0,0,1,.521.208,1.807,1.807,0,0,1,.354,1.821,3.884,3.884,0,0,1-2.278,2.687,3.652,3.652,0,0,1-3.223-.39,2.472,2.472,0,0,1-1.052-1.167,2.562,2.562,0,0,1,.793-2.73" transform="translate(-235.072 -542.069)" fill="#333133"/>
            <path id="Path_17877" data-name="Path 17877" d="M718.57,633.148a7.081,7.081,0,0,0,2.508,4.375,6.341,6.341,0,0,0,2.487.869,9.159,9.159,0,0,0,3.691-.034,6.727,6.727,0,0,0,4.972-6.427,3.776,3.776,0,0,0-.406-1.78c-.809-1.465-2.738-1.818-4.411-1.871a30.879,30.879,0,0,0-7.244.626c-.655.135-1.776.2-2.1.9-.375.8.3,2.542.506,3.346" transform="translate(-629.052 -550.469)" fill="#fff"/>
            <path id="Path_17878" data-name="Path 17878" d="M698.823,597.639a9.677,9.677,0,0,0,10.663,1.174,10.131,10.131,0,0,0,3.122-2.348,10.321,10.321,0,0,0,1.952-3.335,9.7,9.7,0,0,0-.432-7.86,8.654,8.654,0,0,0-5.123-3.737,15.414,15.414,0,0,0-8.608-.178,6.723,6.723,0,0,0-3.914,2.414,7.1,7.1,0,0,0-.957,2.035,11.83,11.83,0,0,0,3.3,11.834m.149-9.064a2.863,2.863,0,0,1,.185-1.251,2.022,2.022,0,0,1,1.562-.935,20.383,20.383,0,0,1,7.375-.645,3.2,3.2,0,0,1,2.021.95c.87,1.008.816,2.7.49,4.1-.375,1.609-1.133,3.241-2.428,3.858a4.981,4.981,0,0,1-2.023.352,11.43,11.43,0,0,1-3.628-.269,4.675,4.675,0,0,1-2.935-2.391,8.813,8.813,0,0,1-.619-3.767" transform="translate(-609.004 -508.906)" fill="#333133"/>
            <path id="Path_17879" data-name="Path 17879" d="M745.731,634.213a3.8,3.8,0,0,1,2.515-.709,10.707,10.707,0,0,1,2.371.282,1.359,1.359,0,0,1,.521.208,1.807,1.807,0,0,1,.354,1.821,3.885,3.885,0,0,1-2.278,2.687,3.653,3.653,0,0,1-3.223-.39,2.471,2.471,0,0,1-1.052-1.167,2.562,2.562,0,0,1,.793-2.73" transform="translate(-652.578 -555.059)" fill="#333133"/>
            <path id="Path_17880" data-name="Path 17880" d="M397.855,359.142a1.888,1.888,0,0,1,2.134-1.785l10.363.035c2.387.008,4.9.066,6.96,1.9,2.195,1.95,3.541,5.906,3.3,9.74s-2.076,7.337-4.491,8.553a8.8,8.8,0,0,1-3.826.712,173.776,173.776,0,0,1-24.261-.988,10.086,10.086,0,0,1-2.68-.557c-3.775-1.506-6.248-7.343-6.776-13.2s.509-11.751,1.639-17.406c.521-2.609,1.4-5.662,3.189-6.012a47.822,47.822,0,0,0-2.2,15.631,29.266,29.266,0,0,0,2.157,9.695c.433,1.025,1.219,3.9,1.911,4.521a4.542,4.542,0,0,0,3.053.942q5.151.233,10.3.013a23.744,23.744,0,0,0-.488-10.467,4.2,4.2,0,0,1-.286-1.326" transform="translate(-331.573 -298.016)" fill="#88a2b0"/>
            <path id="Path_17881" data-name="Path 17881" d="M352.216,318.368a8.359,8.359,0,0,1,4.759,2.517,1.611,1.611,0,0,0-.152.924,2.8,2.8,0,0,0-.317.662,68.592,68.592,0,0,0-3.279,12.057,23.778,23.778,0,0,0,1.141,12.416,17.228,17.228,0,0,0,3.964,5.742c1.3,1.249,2.923,2.767,2.6,4.724-4.249.759-8.1-3.41-10.019-8.016-4-9.583-2.44-21.3,1.3-31.027" transform="translate(-305.408 -278.946)" fill="#96b3c5"/>
            <path id="Path_17882" data-name="Path 17882" d="M355.783,283.864a8.437,8.437,0,0,0,1.422,7.7,2.937,2.937,0,0,0,1.608,1.081,3.185,3.185,0,0,0,2.675-1.375A8.476,8.476,0,0,0,363.6,287.2a6.128,6.128,0,0,0-1.939-5.8,3.587,3.587,0,0,0-5.061.785,5.822,5.822,0,0,0-.817,1.679" transform="translate(-311.402 -245.93)" fill="#768993"/>
            <path id="Path_17883" data-name="Path 17883" d="M357.8,290.753a6.72,6.72,0,0,1-1.093,1.307,3.736,3.736,0,0,1-1.841,1.127,2.855,2.855,0,0,1-2.735-1.628,8.818,8.818,0,0,1-.965-3.631,5.485,5.485,0,0,1,.128-2.16,3.405,3.405,0,0,1,.762-1.259,3.542,3.542,0,0,1,5.222.017,5.566,5.566,0,0,1,.522,6.227" transform="translate(-307.645 -248.28)" fill="#d6e1e5"/>
            <path id="Path_17884" data-name="Path 17884" d="M415.618,306.252a.933.933,0,0,1-.808.083,8.354,8.354,0,0,1-4.657-2.906,1.307,1.307,0,0,1-.182-.276.727.727,0,0,1,.172-.814,1.2,1.2,0,0,1,1.238-.06c1.277.523,2.113,1.776,3.322,2.44a3.024,3.024,0,0,1,.887.577.7.7,0,0,1,.028.956" transform="translate(-359.154 -264.725)" fill="#768993"/>
            <path id="Path_17885" data-name="Path 17885" d="M560.3,140.637a3.071,3.071,0,0,1-.557,1.458,2.816,2.816,0,0,1-1.347.745,5.372,5.372,0,0,1-2.049.311,4.075,4.075,0,0,1-3.3-2.86,7.418,7.418,0,0,1,.174-4.544,4.125,4.125,0,0,1,1.821-2.578,3.6,3.6,0,0,1,1.6-.322,3.1,3.1,0,0,1,1.9.506,3.97,3.97,0,0,1,1.07,1.566,9.529,9.529,0,0,1,.921,2.6,9.33,9.33,0,0,1-.24,3.116" transform="translate(-484.316 -116.397)" fill="#d1ac9d"/>
            <path id="Path_17886" data-name="Path 17886" d="M428.151,262.685a1.1,1.1,0,0,0-.19.879c.153.4.726.472,1.116.285a7.758,7.758,0,0,0,1.025-.789c1.014-.718,2.389-.487,3.614-.282a21.843,21.843,0,0,0,5.925.3,11.379,11.379,0,0,0,5.529-2.01,14.259,14.259,0,0,0,3.974-5.047,2.322,2.322,0,0,0,.321-.926.832.832,0,0,0-.436-.819,1.252,1.252,0,0,0-1.116.292c-1,.66-4.481,3.857-5.484,4.517-3.18,2.092-4.011,1.7-7.769,2.3a13.545,13.545,0,0,1-3.311.122c-.939-.081-2.022-.215-2.7.442a2.949,2.949,0,0,0-.5.733" transform="translate(-374.935 -222.746)" fill="#d1ac9d"/>
            <path id="Path_17887" data-name="Path 17887" d="M542.7,118.537a.74.74,0,0,1,.288-.571.7.7,0,0,1,.35-.069l3.276-.067a11.7,11.7,0,0,0,2.905-.3,4.736,4.736,0,0,0,2.078-1.17,2.45,2.45,0,0,0-.414-1.771,3.748,3.748,0,0,0-2.152-1.075,20.225,20.225,0,0,0-4.95-.292c-.416.017-.678-.378-.826-.848a3.55,3.55,0,0,1-.15-1.292,4.211,4.211,0,0,1,.94-2.081,6.876,6.876,0,0,1,6.122-2.472c2.052.245,4.686,1.5,5.368,3.6a5.7,5.7,0,0,1,.224,1.644,13.181,13.181,0,0,1-.6,4.686,2.957,2.957,0,0,1-1.266,1.859,2.675,2.675,0,0,1-1.977,1.445,21.325,21.325,0,0,1-6.973.664,3.048,3.048,0,0,1-1.491-.394,1.665,1.665,0,0,1-.749-1.492" transform="translate(-475.498 -93.295)" fill="#3a3a3f"/>
            <g id="Group_34429" data-name="Group 34429" transform="translate(67.434 19.83)" opacity="0.35">
              <g id="Group_34428" data-name="Group 34428">
                <g id="Group_34427" data-name="Group 34427" clip-path="url(#clip-path-7)">
                  <path id="Path_17888" data-name="Path 17888" d="M553.022,162.946a1.326,1.326,0,0,0-.347-1.485,3.439,3.439,0,0,0-1.5-.774,13.681,13.681,0,0,0-3.367-.471c-.9-.028-2.385-.343-2.884.651a3.263,3.263,0,0,0-.251.9c-.175.982-.161,2.434.79,3.028a2.731,2.731,0,0,0,1.519.279,15.473,15.473,0,0,0,4.827-.909,2.7,2.7,0,0,0,1.527-1.042c.295-.533.331-.093-.31-.176" transform="translate(-544.583 -160.147)" fill="#96aecc"/>
                </g>
              </g>
            </g>
            <path id="Path_17889" data-name="Path 17889" d="M531.949,445.154a7.4,7.4,0,0,1-1.593-4.551,5.863,5.863,0,0,1,.616-3.3,1.076,1.076,0,0,1,1.211-.337c7.224,1.255,9.664.4,17.679-.056,1.97-.112,5.773-.871,6.695,0s1.838,1.411,1.369,3.492a7.426,7.426,0,0,1-.407,1.224,4.342,4.342,0,0,1-3.781,3c-3.129.4-21.79.527-21.79.527" transform="translate(-464.675 -382.451)" fill="#827870"/>
            <path id="Path_17890" data-name="Path 17890" d="M428.109,416.661a2.769,2.769,0,0,1,1.065-.641c2.762-1.052,6.143-.615,8.406-2.515.742-.623-1.807-1.851-2.262-1.983-1.828-.53-4.372.028-6.219.265-1.646.212-5.567,1.212-6.458,2.757a3.582,3.582,0,0,0,.154,2.951c1.246,3.448,2.732,6.8,4.177,10.173.424.989.745,2.361-.151,2.957-.33.22-.761.264-1.069.514s-.328.882.065.935a.7.7,0,0,0,.334-.068l3.37-1.29a.644.644,0,0,0,.494-.925l-2.225-10.058c-.232-1.049-.417-2.29.317-3.074" transform="translate(-370.075 -360.371)" fill="#3a3a3f"/>
            <path id="Path_17891" data-name="Path 17891" d="M535.742,210.13c-.337-.267-.76-.118-1.314.025a7.388,7.388,0,0,0-1.793.753,18.734,18.734,0,0,0-3.1,2.362,11.081,11.081,0,0,0-4.83,7.919l-2.861,14.266a14.78,14.78,0,0,1,11.117,3.977,2.8,2.8,0,0,0,1.784,1.043c1.407-.015,2.19-2.737,2.56-3.81a20.164,20.164,0,0,0,.989-5.223c.195-2.885-.044-5.779-.094-8.67-.021-1.207-.01-2.416-.106-3.62a25.736,25.736,0,0,0-.793-4.466c-.192-.735-.409-1.463-.641-2.186a9.055,9.055,0,0,0-.732-2.16.934.934,0,0,0-.189-.209" transform="translate(-457.228 -183.981)" fill="#f0f0f0"/>
            <path id="Path_17892" data-name="Path 17892" d="M467.509,240.769a3.207,3.207,0,0,0-2.728.291,7.472,7.472,0,0,0-1.673,1.681,41.689,41.689,0,0,1-3.543,3.608,5.618,5.618,0,0,1-4.676,2.105l-6.971.3A4.935,4.935,0,0,1,448.934,251c2.871.057,5.318.287,8.189.344a12.94,12.94,0,0,0,2.863-.339,6.7,6.7,0,0,0,2.276-1.137,23.643,23.643,0,0,0,4.726-5.115,5.668,5.668,0,0,0,1.329-2.6,1.322,1.322,0,0,0-.239-1.043,1.343,1.343,0,0,0-.568-.344" transform="translate(-392.454 -210.798)" fill="#e6e6e6"/>
            <path id="Path_17893" data-name="Path 17893" d="M535.044,362.371a24.439,24.439,0,0,0,6.336,1.4c1.943.184,4.384.47,6.267-.117.2-.063.273.235.086.31-1.9.767-4.359.48-6.353.341a23.552,23.552,0,0,1-6.2-1.272.214.214,0,0,1-.042-.007l-.25-.1c-.345-.131-.2-.69.154-.558" transform="translate(-468.485 -317.483)" fill="#e6e6e6"/>
            <path id="Path_17894" data-name="Path 17894" d="M530.359,382.646c4.125,1.9,8.217,2.044,12.66,1.553.168-.018.2.25.039.29a18.772,18.772,0,0,1-12.98-1.363c-.321-.171-.039-.628.281-.48" transform="translate(-464.317 -335.239)" fill="#e6e6e6"/>
            <path id="Path_17895" data-name="Path 17895" d="M459.335,417.814c-5.766,1.857-12.155-.158-18.19.68l8.932,15.27c.238.406.444.983.054,1.27a1.147,1.147,0,0,1-.726.132l-6.486-.261a2.813,2.813,0,0,1,3.188-1.588,87.491,87.491,0,0,1-8.965-12.665c-.663-1.141-1.312-2.493-.765-3.686a3.813,3.813,0,0,1,1.291-1.4,12.827,12.827,0,0,1,9.8-2.137c-.013-.232.255-.16.5-.207a9.9,9.9,0,0,1,5.619.762,28.007,28.007,0,0,1,4.873,2.861,1.765,1.765,0,0,1,.879.966" transform="translate(-382.162 -361.936)" fill="#454549"/>
            <path id="Path_17896" data-name="Path 17896" d="M287.966,519.072c-2.056-.649-3.44-2.511-4.818-4.168a29.2,29.2,0,0,0-10.189-8.132,7.991,7.991,0,0,1-2.076-1.153,2.195,2.195,0,0,1-.8-2.118c.271-.993,1.384-1.456,2.361-1.781a14.724,14.724,0,0,1,3.419-.842,4.955,4.955,0,0,1,3.356.816,7.707,7.707,0,0,1,1.981,2.712,92.283,92.283,0,0,0,4.765,7.95,9.535,9.535,0,0,0,2.543,2.832c.959.624,2.983,1.049,2.681,2.57-.288,1.452-2.067,1.681-3.227,1.314" transform="translate(-236.595 -438.837)" fill="#768993"/>
            <path id="Path_17897" data-name="Path 17897" d="M670.076,540.72a11.017,11.017,0,0,0-4.578.047,10.1,10.1,0,0,0-3.2,1.85c-2.5,1.9-5.03,3.913-6.389,6.526a4,4,0,0,0-.558,2.4,2.266,2.266,0,0,0,1.686,1.844c1.458.343,2.771-.77,3.788-1.726a16.446,16.446,0,0,1,6.052-3.888,17.747,17.747,0,0,1,5.222-.737,10.466,10.466,0,0,0,4.13-.535c1.791-.811,2.179-2.769.547-3.782a17.131,17.131,0,0,0-6.7-2" transform="translate(-574.174 -473.573)" fill="#768993"/>
          </g>
        </g>
      </g>
    </g>
    <g id="Group_34434" data-name="Group 34434" transform="translate(253 376.807)" opacity="0.5">
      <g id="Group_34432-2" data-name="Group 34432" clip-path="url(#clip-path-8)">
        <g id="Group_34431-2" data-name="Group 34431">
          <g id="Group_34430-2" data-name="Group 34430" clip-path="url(#clip-path-8)">
            <g id="Group_34421-2" data-name="Group 34421" transform="translate(0 48.004)" opacity="0.2" style="mix-blend-mode: multiply;isolation: isolate">
              <g id="Group_34420-2" data-name="Group 34420">
                <g id="Group_34419-2" data-name="Group 34419" clip-path="url(#clip-path-10)">
                  <g id="Group_34418-2" data-name="Group 34418" transform="translate(0 0)">
                    <g id="Group_34417-2" data-name="Group 34417" clip-path="url(#clip-path-11)">
                      <rect id="Rectangle_4792-2" data-name="Rectangle 4792" width="42.349" height="3.635" transform="translate(-0.043 -0.048)" fill="url(#linear-gradient-3)"/>
                    </g>
                  </g>
                </g>
              </g>
            </g>
            <g id="Group_34426-2" data-name="Group 34426" transform="translate(17.467 42.373)" opacity="0.2" style="mix-blend-mode: multiply;isolation: isolate">
              <g id="Group_34425-2" data-name="Group 34425">
                <g id="Group_34424-2" data-name="Group 34424" clip-path="url(#clip-path-12)">
                  <g id="Group_34423-2" data-name="Group 34423" transform="translate(0)">
                    <g id="Group_34422-2" data-name="Group 34422" clip-path="url(#clip-path-13)">
                      <rect id="Rectangle_4794-2" data-name="Rectangle 4794" width="35.882" height="2.303" transform="translate(0 -0.113)" fill="url(#linear-gradient-4)"/>
                    </g>
                  </g>
                </g>
              </g>
            </g>
            <path id="Path_17864-2" data-name="Path 17864" d="M.534,71.25A12.8,12.8,0,0,1,5,71.757a4.1,4.1,0,0,1,1.774,1.12A6.967,6.967,0,0,1,7.923,74.7a11.908,11.908,0,0,1,1,4.77c.027,1.753-.169,3.5-.185,5.258-.017,1.78.061,3.561.216,5.332A14.457,14.457,0,0,1,9,94.711c-.336,1.384-1.456,2.809-2.772,2.044-1.245-.723-1.38-2.781-1.409-4.2-.035-1.752.2-3.506.05-5.255a6.039,6.039,0,0,0-.61-2.334,1.066,1.066,0,0,0-.625-.579,1.051,1.051,0,0,0-.518.023,5.856,5.856,0,0,1-.582.114.357.357,0,0,1-.3-.595,2.154,2.154,0,0,1,.833-.565,1.355,1.355,0,0,1,1,.018,2.536,2.536,0,0,1,1.2,1.438,11.068,11.068,0,0,1,.592,4.358,33.621,33.621,0,0,0-.026,4.488A3.442,3.442,0,0,0,6.473,95.6c.4.425.87.277,1.2-.181.755-1.054.57-2.7.436-3.952-.177-1.657-.33-3.312-.388-4.982-.058-1.689-.007-3.367.067-5.054a15.461,15.461,0,0,0-.315-4.7c-.375-1.4-1.086-2.99-2.312-3.564a7.273,7.273,0,0,0-2.188-.532,14.589,14.589,0,0,0-2.438-.1c-.712.031-.711-1.266,0-1.3" transform="translate(49.944 -66.334)" fill="#afd9c4"/>
            <path id="Path_17865-2" data-name="Path 17865" d="M77.383,243.726a.733.733,0,0,1,.442-.312,3.268,3.268,0,0,1,.681-.13c.443-.1.887-.2,1.33-.3.327-.075.8-.254,1.056.085a1.929,1.929,0,0,1,.263,1.272c-.062.389-.448.531-.779.611.021.131.058.26.089.388a1.94,1.94,0,0,1,.07.626.829.829,0,0,1-.248.553,1.067,1.067,0,0,1-.4.191l-.477.148a.491.491,0,0,0-.24.128.6.6,0,0,0-.106.3c-.04.241-.01.567-.238.644a2.373,2.373,0,0,1-.9-.027.462.462,0,0,1-.335-.146.544.544,0,0,1-.08-.207,7.672,7.672,0,0,1-.14-1.457l-.059-1.825a1.048,1.048,0,0,1,.077-.537m1.793,2.737a.212.212,0,0,0,.088.137.18.18,0,0,0,.118,0c.427-.1,1.056-.164,1-.8a1.646,1.646,0,0,0-.18-.543.165.165,0,0,0-.038-.058.14.14,0,0,0-.064-.025,1.381,1.381,0,0,0-.539-.034.571.571,0,0,0-.428.331.829.829,0,0,0-.049.284,2.18,2.18,0,0,0,.1.709" transform="translate(-27.362 -226.162)" fill="#2ba27c"/>
            <path id="Path_17866-2" data-name="Path 17866" d="M90.182,314.513a.329.329,0,0,0,.106.263,1.128,1.128,0,0,0,.588.143,21.265,21.265,0,0,0,2.227.02.885.885,0,0,0,.35-.063.318.318,0,0,0,.136-.148,2.444,2.444,0,0,0,.22-1.064,41.312,41.312,0,0,0-.124-5.709.591.591,0,0,0-.151-.405,2.168,2.168,0,0,0-1.286-.306c-.531-.021-1.948-.241-2.205.1-.106.143.005.437,0,.589,0,.3-.012.6-.015.9q-.02,1.808.046,3.616.038,1.033.1,2.065" transform="translate(-40.918 -286.031)" fill="#f0f0f0"/>
            <path id="Path_17867-2" data-name="Path 17867" d="M111.352,60.3a.458.458,0,0,0,.081.289.662.662,0,0,0,.448.157,11.214,11.214,0,0,0,1.7.022.5.5,0,0,0,.267-.069.336.336,0,0,0,.1-.163,3.747,3.747,0,0,0,.168-1.173q.1-3.145-.094-6.291a.841.841,0,0,0-.115-.446,1.277,1.277,0,0,0-.98-.338c-.405-.023-1.485-.265-1.681.115-.081.157,0,.482,0,.649,0,.329-.009.658-.012.987q-.015,1.992.035,3.985.029,1.138.08,2.276" transform="translate(-62.674 -48.601)" fill="#f0f0f0"/>
            <path id="Path_17868-2" data-name="Path 17868" d="M140.149,41.867c.193-.025.372-.043.534-.053,2.188-.127,4.376-.254,6.566-.326q2.644-.086,5.289-.064c1.258.01,3.3.651,4.05-.607,1.518-2.56.588-7.657.584-10.57q0-.1,0-.207-.018-10.348-.035-20.7c-.006-4.833.336-9.32-4.019-9.32H138.342c-2.169,0-3.609-.388-4.306,1.963-.73,2.462-.278,7.368-.294,10.488l-.106,20.608c-.013,2.479-.384,5.924.764,8.145.847,1.639,3.923.874,5.75.64" transform="translate(-107.517 0)" fill="#2ba27c"/>
            <path id="Path_17869-2" data-name="Path 17869" d="M114.673,573.463a4.439,4.439,0,0,0,1.746.027h20.185c.975,0,3.573.57,3.84-.994a8.465,8.465,0,0,0,.09-1.262,4.235,4.235,0,0,0-.118-1.333c-.329-1.051-1.343-.6-2.071-.6H116.191c-.672,0-1.8-.426-1.868.743l-.121,1.947a2.921,2.921,0,0,0,.049.973.739.739,0,0,0,.422.5" transform="translate(-89.265 -530.058)" fill="#ebefeb"/>
            <path id="Path_17870-2" data-name="Path 17870" d="M134.018,284.032a3.781,3.781,0,0,0,1.61.027h18.611c.9,0,3.294.57,3.541-.994a9.156,9.156,0,0,0,.083-1.262,4.58,4.58,0,0,0-.109-1.333c-.3-1.051-1.238-.6-1.91-.6H135.417c-.62,0-1.656-.426-1.722.743l-.111,1.947a3.162,3.162,0,0,0,.045.973.725.725,0,0,0,.389.5" transform="translate(-107.924 -260.534)" fill="#a5ccb8"/>
            <path id="Path_17871-2" data-name="Path 17871" d="M185.453,34.184a1.478,1.478,0,0,0-.234-1.02,1.414,1.414,0,0,0-.871-.384,12.22,12.22,0,0,0-2.548-.042c-4.467.23-8.908-.189-13.382-.223a1.867,1.867,0,0,0-1.373.356,3.56,3.56,0,0,0-.39,1.51,52.688,52.688,0,0,0-.2,7.082,2.7,2.7,0,0,0,.32,1.489,2.565,2.565,0,0,0,1.757.888,18.308,18.308,0,0,0,2.8.195c2.587.039,5.175.009,7.762-.02l3.435-.04c.641-.007,2.2.255,2.709-.217.493-.454.164-2.1.162-2.71q-.005-1.64.006-3.28.013-1.792.045-3.583" transform="translate(-137.83 -30.278)" fill="#fff"/>
            <path id="Path_17872-2" data-name="Path 17872" d="M256.894,59.778s.617-2.877-2.959-4.423-4.347-2.384-4.347-2.384-.283.025,0,.757.963,5.348,3.185,6.05,3.581.356,4.122,0" transform="translate(-214.964 -49.328)" fill="#51924b"/>
            <path id="Path_17873-2" data-name="Path 17873" d="M236.4,100.138a.325.325,0,0,0,.121-.627,1.453,1.453,0,0,1-.65-.1,16.066,16.066,0,0,1-5.61-3.5c-.118-.136-.323-.476-.459-.359s.122.52.24.656c1.953,2.26,6.052,3.835,6.237,3.909a.318.318,0,0,0,.121.024" transform="translate(-193.404 -88.956)" fill="#73a56d"/>
            <path id="Path_17874-2" data-name="Path 17874" d="M248.987,604.83a3.4,3.4,0,0,1-2.792,2.589,5.443,5.443,0,0,1-3.054-1,4.1,4.1,0,0,1-1.263-.957,2.6,2.6,0,0,1,.28-3.2,4.748,4.748,0,0,1,3.114-1.389c.809-.082,2.648-.378,3.284.284.756.785.684,2.724.43,3.681" transform="translate(-206.642 -559.412)" fill="#fff"/>
            <path id="Path_17875-2" data-name="Path 17875" d="M227.648,575.339a5.375,5.375,0,0,1-5.923.652,5.629,5.629,0,0,1-1.734-1.3,5.733,5.733,0,0,1-1.084-1.853,5.39,5.39,0,0,1,.24-4.366,4.806,4.806,0,0,1,2.846-2.076,8.561,8.561,0,0,1,4.781-.1,3.735,3.735,0,0,1,2.174,1.341,3.943,3.943,0,0,1,.531,1.13,6.571,6.571,0,0,1-1.831,6.573m-.083-5.035a1.592,1.592,0,0,0-.1-.695,1.123,1.123,0,0,0-.868-.519,11.321,11.321,0,0,0-4.1-.358,1.779,1.779,0,0,0-1.122.528,2.679,2.679,0,0,0-.272,2.275,3.073,3.073,0,0,0,1.349,2.143,2.767,2.767,0,0,0,1.123.2,6.351,6.351,0,0,0,2.015-.15,2.6,2.6,0,0,0,1.63-1.328,4.9,4.9,0,0,0,.344-2.092" transform="translate(-185.636 -527.074)" fill="#333133"/>
            <path id="Path_17876-2" data-name="Path 17876" d="M271.541,619.071a2.109,2.109,0,0,0-1.4-.394,5.953,5.953,0,0,0-1.317.156.755.755,0,0,0-.289.115,1,1,0,0,0-.2,1.011,2.157,2.157,0,0,0,1.265,1.492,2.028,2.028,0,0,0,1.79-.217,1.374,1.374,0,0,0,.584-.648,1.423,1.423,0,0,0-.44-1.516" transform="translate(-231.381 -576.127)" fill="#333133"/>
            <path id="Path_17877-2" data-name="Path 17877" d="M725.54,630.977a3.933,3.933,0,0,1-1.393,2.43,3.52,3.52,0,0,1-1.381.483,5.086,5.086,0,0,1-2.05-.019,3.736,3.736,0,0,1-2.762-3.57,2.1,2.1,0,0,1,.226-.989,2.764,2.764,0,0,1,2.45-1.039,17.151,17.151,0,0,1,4.023.348c.364.075.986.11,1.168.5.208.444-.169,1.412-.281,1.859" transform="translate(-716.133 -585.055)" fill="#fff"/>
            <path id="Path_17878-2" data-name="Path 17878" d="M704.159,590.165a5.375,5.375,0,0,1-5.923.652,5.624,5.624,0,0,1-1.734-1.3,5.733,5.733,0,0,1-1.084-1.853,5.391,5.391,0,0,1,.24-4.366,4.807,4.807,0,0,1,2.846-2.076,8.562,8.562,0,0,1,4.781-.1,3.735,3.735,0,0,1,2.174,1.341,3.943,3.943,0,0,1,.531,1.131,6.571,6.571,0,0,1-1.831,6.573m-.083-5.035a1.588,1.588,0,0,0-.1-.695,1.123,1.123,0,0,0-.868-.519,11.322,11.322,0,0,0-4.1-.358,1.78,1.78,0,0,0-1.122.528,2.68,2.68,0,0,0-.272,2.276,3.072,3.072,0,0,0,1.349,2.143,2.766,2.766,0,0,0,1.123.2,6.345,6.345,0,0,0,2.015-.15,2.6,2.6,0,0,0,1.63-1.328,4.894,4.894,0,0,0,.344-2.092" transform="translate(-694.919 -540.88)" fill="#333133"/>
            <path id="Path_17879-2" data-name="Path 17879" d="M748.052,633.9a2.109,2.109,0,0,0-1.4-.394,5.945,5.945,0,0,0-1.317.156.756.756,0,0,0-.289.115,1,1,0,0,0-.2,1.011,2.158,2.158,0,0,0,1.265,1.492,2.029,2.029,0,0,0,1.79-.217,1.373,1.373,0,0,0,.584-.648,1.423,1.423,0,0,0-.44-1.516" transform="translate(-740.664 -589.933)" fill="#333133"/>
            <path id="Path_17880-2" data-name="Path 17880" d="M391.086,350.691a1.049,1.049,0,0,0-1.185-.991l-5.756.019a5.418,5.418,0,0,0-3.866,1.053,6.987,6.987,0,0,0-1.831,5.41c.136,2.129,1.153,4.075,2.494,4.751a4.888,4.888,0,0,0,2.125.4,96.521,96.521,0,0,0,13.475-.549,5.6,5.6,0,0,0,1.489-.309c2.1-.836,3.47-4.079,3.764-7.33a34.074,34.074,0,0,0-.91-9.668c-.29-1.449-.779-3.145-1.771-3.339a26.563,26.563,0,0,1,1.221,8.682,16.257,16.257,0,0,1-1.2,5.385,11.3,11.3,0,0,1-1.061,2.511,2.523,2.523,0,0,1-1.7.523q-2.861.13-5.724.007a13.188,13.188,0,0,1,.271-5.813,2.328,2.328,0,0,0,.159-.736" transform="translate(-368.774 -316.74)" fill="#88a2b0"/>
            <path id="Path_17881-2" data-name="Path 17881" d="M353.436,318.368a4.642,4.642,0,0,0-2.643,1.4.894.894,0,0,1,.084.513,1.557,1.557,0,0,1,.176.368,38.093,38.093,0,0,1,1.821,6.7,13.207,13.207,0,0,1-.634,6.9,9.57,9.57,0,0,1-2.2,3.189c-.72.693-1.623,1.537-1.446,2.624,2.36.422,4.5-1.894,5.565-4.452,2.22-5.323,1.355-11.828-.721-17.233" transform="translate(-320.307 -296.472)" fill="#96b3c5"/>
            <path id="Path_17882-2" data-name="Path 17882" d="M359.81,282.451a4.686,4.686,0,0,1-.79,4.278,1.631,1.631,0,0,1-.893.6,1.769,1.769,0,0,1-1.486-.764,4.709,4.709,0,0,1-1.173-2.263,3.4,3.4,0,0,1,1.077-3.22,1.992,1.992,0,0,1,2.811.436,3.235,3.235,0,0,1,.454.932" transform="translate(-325.333 -261.382)" fill="#768993"/>
            <path id="Path_17883-2" data-name="Path 17883" d="M351.52,287.47a3.734,3.734,0,0,0,.607.726,2.075,2.075,0,0,0,1.022.626,1.586,1.586,0,0,0,1.519-.9,4.9,4.9,0,0,0,.536-2.017,3.047,3.047,0,0,0-.071-1.2,1.891,1.891,0,0,0-.423-.7,1.967,1.967,0,0,0-2.9.009,3.092,3.092,0,0,0-.29,3.459" transform="translate(-320.252 -263.88)" fill="#d6e1e5"/>
            <path id="Path_17884-2" data-name="Path 17884" d="M410.01,304.423a.518.518,0,0,0,.449.046,4.64,4.64,0,0,0,2.587-1.614.726.726,0,0,0,.1-.154.4.4,0,0,0-.1-.452.665.665,0,0,0-.688-.033c-.709.29-1.173.986-1.845,1.355a1.679,1.679,0,0,0-.493.32.389.389,0,0,0-.016.531" transform="translate(-382.244 -281.358)" fill="#768993"/>
            <path id="Path_17885-2" data-name="Path 17885" d="M552.926,137.174a1.706,1.706,0,0,0,.31.81,1.564,1.564,0,0,0,.748.414,2.984,2.984,0,0,0,1.138.173,2.263,2.263,0,0,0,1.833-1.588,4.121,4.121,0,0,0-.1-2.524,2.292,2.292,0,0,0-1.011-1.432,2,2,0,0,0-.891-.179,1.722,1.722,0,0,0-1.056.281,2.205,2.205,0,0,0-.594.87,5.293,5.293,0,0,0-.512,1.445,5.181,5.181,0,0,0,.133,1.73" transform="translate(-536.002 -123.711)" fill="#d1ac9d"/>
            <path id="Path_17886-2" data-name="Path 17886" d="M439.763,258.924a.612.612,0,0,1,.105.488c-.085.224-.4.262-.62.158a4.314,4.314,0,0,1-.569-.438,2.694,2.694,0,0,0-2.008-.156,12.132,12.132,0,0,1-3.291.167,6.32,6.32,0,0,1-3.071-1.117,7.92,7.92,0,0,1-2.207-2.8,1.289,1.289,0,0,1-.178-.514.462.462,0,0,1,.242-.455.7.7,0,0,1,.62.162c.557.367,2.489,2.142,3.046,2.509,1.766,1.162,2.228.942,4.315,1.278a7.524,7.524,0,0,0,1.839.068,1.874,1.874,0,0,1,1.5.245,1.638,1.638,0,0,1,.278.407" transform="translate(-410.193 -236.741)" fill="#d1ac9d"/>
            <path id="Path_17887-2" data-name="Path 17887" d="M549.955,113.177a.411.411,0,0,0-.16-.317.389.389,0,0,0-.194-.038l-1.82-.037a6.5,6.5,0,0,1-1.614-.169,2.631,2.631,0,0,1-1.154-.65,1.36,1.36,0,0,1,.23-.984,2.082,2.082,0,0,1,1.2-.6,11.234,11.234,0,0,1,2.749-.162c.231.009.376-.21.459-.471a1.972,1.972,0,0,0,.084-.718,2.339,2.339,0,0,0-.522-1.156,3.819,3.819,0,0,0-3.4-1.373,3.6,3.6,0,0,0-2.982,2,3.167,3.167,0,0,0-.125.913,7.321,7.321,0,0,0,.336,2.6,1.643,1.643,0,0,0,.7,1.032,1.486,1.486,0,0,0,1.1.8,11.844,11.844,0,0,0,3.873.369,1.693,1.693,0,0,0,.828-.219.925.925,0,0,0,.416-.829" transform="translate(-528.156 -99.156)" fill="#3a3a3f"/>
            <g id="Group_34429-2" data-name="Group 34429" transform="translate(16.7 11.014)" opacity="0.35">
              <g id="Group_34428-2" data-name="Group 34428" transform="translate(0)">
                <g id="Group_34427-2" data-name="Group 34427" clip-path="url(#clip-path-14)">
                  <path id="Path_17888-2" data-name="Path 17888" d="M544.868,161.7a.736.736,0,0,1,.193-.825,1.91,1.91,0,0,1,.835-.43,7.6,7.6,0,0,1,1.87-.261c.5-.016,1.325-.191,1.6.362a1.81,1.81,0,0,1,.139.5c.1.546.09,1.352-.439,1.682a1.517,1.517,0,0,1-.844.155,8.593,8.593,0,0,1-2.681-.5,1.5,1.5,0,0,1-.848-.579c-.164-.3-.184-.052.172-.1" transform="translate(-544.583 -160.147)" fill="#96aecc"/>
                </g>
              </g>
            </g>
            <path id="Path_17889-2" data-name="Path 17889" d="M544.845,441.307a4.113,4.113,0,0,0,.885-2.527,3.257,3.257,0,0,0-.342-1.831.6.6,0,0,0-.673-.187c-4.012.7-5.368.221-9.819-.031-1.094-.062-3.206-.484-3.719,0s-1.021.784-.76,1.94a4.126,4.126,0,0,0,.226.68,2.412,2.412,0,0,0,2.1,1.665c1.738.22,12.1.293,12.1.293" transform="translate(-523.083 -406.48)" fill="#827870"/>
            <path id="Path_17890-2" data-name="Path 17890" d="M427.711,414.278a1.539,1.539,0,0,0-.592-.356c-1.534-.584-3.412-.341-4.669-1.4-.412-.346,1-1.028,1.256-1.1a9.441,9.441,0,0,1,3.454.147c.914.118,3.092.673,3.587,1.531a1.99,1.99,0,0,1-.086,1.639c-.692,1.915-1.517,3.779-2.32,5.651-.236.55-.414,1.311.084,1.643.184.122.422.147.594.286s.182.49-.036.519a.388.388,0,0,1-.185-.038l-1.872-.716a.358.358,0,0,1-.274-.514l1.236-5.587a1.891,1.891,0,0,0-.176-1.708" transform="translate(-400.818 -383.013)" fill="#3a3a3f"/>
            <path id="Path_17891-2" data-name="Path 17891" d="M523.307,210.064c.187-.148.422-.066.73.014a4.105,4.105,0,0,1,1,.418,10.4,10.4,0,0,1,1.721,1.312,6.154,6.154,0,0,1,2.683,4.4l1.589,7.924a8.209,8.209,0,0,0-6.175,2.209,1.556,1.556,0,0,1-.991.579c-.782-.008-1.216-1.52-1.422-2.116a11.2,11.2,0,0,1-.549-2.9c-.108-1.6.024-3.21.052-4.816.012-.671.005-1.342.059-2.01a14.3,14.3,0,0,1,.44-2.48c.107-.408.227-.812.356-1.214a5.03,5.03,0,0,1,.407-1.2.517.517,0,0,1,.1-.116" transform="translate(-507.788 -195.54)" fill="#f0f0f0"/>
            <path id="Path_17892-2" data-name="Path 17892" d="M448.375,240.689a1.781,1.781,0,0,1,1.515.162,4.15,4.15,0,0,1,.929.934,23.157,23.157,0,0,0,1.968,2,3.121,3.121,0,0,0,2.6,1.169l3.872.169a2.74,2.74,0,0,0-.564,1.247c-1.594.032-2.954.16-4.548.191a7.187,7.187,0,0,1-1.59-.188,3.72,3.72,0,0,1-1.264-.631,13.131,13.131,0,0,1-2.625-2.841,3.148,3.148,0,0,1-.738-1.445.734.734,0,0,1,.133-.579.746.746,0,0,1,.315-.191" transform="translate(-430.935 -224.043)" fill="#e6e6e6"/>
            <path id="Path_17893-2" data-name="Path 17893" d="M541.8,362.362a13.577,13.577,0,0,1-3.519.776,9.513,9.513,0,0,1-3.481-.065c-.113-.035-.151.13-.048.172a8.329,8.329,0,0,0,3.529.189,13.083,13.083,0,0,0,3.442-.706.118.118,0,0,0,.023,0l.139-.053c.192-.073.109-.383-.086-.31" transform="translate(-519.643 -337.43)" fill="#e6e6e6"/>
            <path id="Path_17894-2" data-name="Path 17894" d="M537.048,382.633a12.751,12.751,0,0,1-7.032.863c-.093-.01-.11.139-.022.161a10.426,10.426,0,0,0,7.209-.757c.179-.095.022-.349-.156-.267" transform="translate(-514.603 -356.302)" fill="#e6e6e6"/>
            <path id="Path_17895-2" data-name="Path 17895" d="M436.172,415.713c3.2,1.031,6.751-.088,10.1.378l-4.961,8.482c-.132.226-.247.546-.03.705a.637.637,0,0,0,.4.073l3.6-.145a1.562,1.562,0,0,0-1.771-.882,48.6,48.6,0,0,0,4.979-7.035,2.317,2.317,0,0,0,.425-2.047,2.118,2.118,0,0,0-.717-.775,7.124,7.124,0,0,0-5.442-1.187c.007-.129-.142-.089-.278-.115a5.5,5.5,0,0,0-3.121.423,15.561,15.561,0,0,0-2.706,1.589.981.981,0,0,0-.488.537" transform="translate(-419.909 -384.677)" fill="#454549"/>
            <path id="Path_17896-2" data-name="Path 17896" d="M271.841,510.973a6.359,6.359,0,0,0,2.676-2.315,16.22,16.22,0,0,1,5.659-4.517,4.441,4.441,0,0,0,1.153-.64,1.219,1.219,0,0,0,.442-1.177c-.15-.552-.769-.809-1.311-.989a8.171,8.171,0,0,0-1.9-.467,2.752,2.752,0,0,0-1.864.453,4.281,4.281,0,0,0-1.1,1.506,51.244,51.244,0,0,1-2.647,4.416,5.3,5.3,0,0,1-1.412,1.573c-.532.346-1.657.583-1.489,1.427.16.807,1.148.934,1.793.73" transform="translate(-241.247 -466.408)" fill="#768993"/>
            <path id="Path_17897-2" data-name="Path 17897" d="M659.614,540.623a6.119,6.119,0,0,1,2.543.026,5.607,5.607,0,0,1,1.779,1.028,11.915,11.915,0,0,1,3.549,3.625,2.22,2.22,0,0,1,.31,1.334,1.258,1.258,0,0,1-.936,1.024c-.81.19-1.539-.427-2.1-.959a9.135,9.135,0,0,0-3.361-2.16,9.858,9.858,0,0,0-2.9-.41,5.814,5.814,0,0,1-2.294-.3c-.995-.451-1.21-1.538-.3-2.1a9.515,9.515,0,0,1,3.72-1.111" transform="translate(-653.753 -503.327)" fill="#768993"/>
          </g>
        </g>
      </g>
    </g>
  </g>
</svg>
