<svg xmlns="http://www.w3.org/2000/svg" xmlns:xlink="http://www.w3.org/1999/xlink" width="130" height="70" viewBox="0 0 130 70">
  <defs>
    <clipPath id="clip-path">
      <rect id="Rectangle_5113" data-name="Rectangle 5113" width="72.397" height="63.214" fill="none"/>
    </clipPath>
    <clipPath id="clip-path-3">
      <rect id="Rectangle_5109" data-name="Rectangle 5109" width="13.644" height="13.644" fill="none"/>
    </clipPath>
    <clipPath id="clip-path-4">
      <rect id="Rectangle_5110" data-name="Rectangle 5110" width="9.761" height="12.283" fill="none"/>
    </clipPath>
    <clipPath id="clip-path-5">
      <rect id="Rectangle_5111" data-name="Rectangle 5111" width="8.334" height="11.19" fill="none"/>
    </clipPath>
    <clipPath id="clip-_2">
      <rect width="130" height="70"/>
    </clipPath>
  </defs>
  <g id="_2" data-name="2" clip-path="url(#clip-_2)">
    <rect width="130" height="70" fill="#fff"/>
    <rect id="Rectangle_5114" data-name="Rectangle 5114" width="130" height="70" fill="#f8f8ff"/>
    <g id="Group_34855" data-name="Group 34855" transform="translate(29 3)">
      <g id="Group_34854" data-name="Group 34854" clip-path="url(#clip-path)">
        <g id="Group_34853" data-name="Group 34853">
          <g id="Group_34852" data-name="Group 34852" clip-path="url(#clip-path)">
            <path id="Path_18100" data-name="Path 18100" d="M58.417,107.669C72.76,102.618,87.5,109.618,78.6,125.284c-8.659,15.239,4.091,19.277,4.091,19.277l-52.146-.282c-10.612-3.84-19.642-20.536-9.71-25.787,0,0,6.32-1.216,6.887-5.626s-1.946-8.027,2.108-10.8,10.872-2.01,17.188,3.392c4.865,4.16,11.4,2.211,11.4,2.211" transform="translate(-13.879 -84.289)" fill="#ccf"/>
            <path id="Path_18101" data-name="Path 18101" d="M77.235,366.24c0,1.247-15.975,2.258-35.682,2.258S5.872,367.486,5.872,366.24s15.975-2.258,35.682-2.258,35.682,1.011,35.682,2.258" transform="translate(-4.925 -305.283)" fill="#ccf"/>
            <path id="Path_18102" data-name="Path 18102" d="M52.136,23.846a.617.617,0,0,1-.614.614H38.388a.613.613,0,0,1-.433-1.048.607.607,0,0,1,.433-.181h.621a1.6,1.6,0,0,1,2.606-.5,2.224,2.224,0,0,1,2.562-1,2.542,2.542,0,0,1,4.7.513,1.6,1.6,0,0,1,2.254.984h.4a.616.616,0,0,1,.614.614" transform="translate(-31.682 -17.096)" fill="#ccf"/>
            <path id="Path_18103" data-name="Path 18103" d="M346.716,26.577a.617.617,0,0,1-.614.614H332.968a.613.613,0,0,1-.433-1.048.607.607,0,0,1,.433-.181h.621a1.6,1.6,0,0,1,2.606-.5,2.224,2.224,0,0,1,2.562-1,2.542,2.542,0,0,1,4.7.513,1.6,1.6,0,0,1,2.254.984h.4a.616.616,0,0,1,.614.614" transform="translate(-278.755 -19.386)" fill="#ccf"/>
            <path id="Path_18104" data-name="Path 18104" d="M214.692,35.863a.617.617,0,0,1-.614.614H200.944a.613.613,0,0,1-.433-1.048.607.607,0,0,1,.433-.181h.621a1.6,1.6,0,0,1,2.606-.5,2.224,2.224,0,0,1,2.563-1,2.542,2.542,0,0,1,4.7.513,1.6,1.6,0,0,1,2.254.984h.4a.616.616,0,0,1,.614.614" transform="translate(-168.023 -27.175)" fill="#ccf"/>
            <path id="Path_18105" data-name="Path 18105" d="M425.39,101.63a.882.882,0,1,1-.882.882.882.882,0,0,1,.882-.882m0,.277a.6.6,0,1,0,.6.6.606.606,0,0,0-.6-.6" transform="translate(-356.048 -85.24)" fill="#8380f9"/>
            <path id="Path_18106" data-name="Path 18106" d="M419.828,73.849a.882.882,0,1,1-.882.882.882.882,0,0,1,.882-.882m0,.277a.6.6,0,1,0,.6.6.606.606,0,0,0-.6-.6" transform="translate(-351.384 -61.939)" fill="#5446cf"/>
            <path id="Path_18107" data-name="Path 18107" d="M407.786,65.433a.138.138,0,0,0,.138.138h.61a.138.138,0,1,0,0-.276h-.61a.138.138,0,0,0-.138.138" transform="translate(-342.023 -54.765)" fill="#6c5ef1"/>
            <path id="Path_18108" data-name="Path 18108" d="M401.169,65.433a.138.138,0,0,0,.138.138h.61a.138.138,0,1,0,0-.276h-.61a.138.138,0,0,0-.138.138" transform="translate(-336.473 -54.765)" fill="#6c5ef1"/>
            <path id="Path_18109" data-name="Path 18109" d="M406.368,60.125v.548a.138.138,0,0,0,.277,0v-.548a.138.138,0,0,0-.277,0" transform="translate(-340.833 -50.313)" fill="#6c5ef1"/>
            <path id="Path_18110" data-name="Path 18110" d="M406.368,67.343v.548a.138.138,0,0,0,.277,0v-.548a.138.138,0,1,0-.277,0" transform="translate(-340.833 -56.367)" fill="#6c5ef1"/>
            <path id="Path_18111" data-name="Path 18111" d="M413.953,94.627a.138.138,0,0,0,.138.138h.61a.138.138,0,0,0,0-.277h-.61a.138.138,0,0,0-.138.138" transform="translate(-347.195 -79.251)" fill="#5446cf"/>
            <path id="Path_18112" data-name="Path 18112" d="M407.335,94.627a.138.138,0,0,0,.138.138h.61a.138.138,0,0,0,0-.277h-.61a.138.138,0,0,0-.138.138" transform="translate(-341.644 -79.251)" fill="#5446cf"/>
            <path id="Path_18113" data-name="Path 18113" d="M412.534,89.32v.548a.138.138,0,0,0,.277,0V89.32a.138.138,0,0,0-.277,0" transform="translate(-346.005 -74.8)" fill="#5446cf"/>
            <path id="Path_18114" data-name="Path 18114" d="M412.534,96.538v.548a.138.138,0,0,0,.277,0v-.548a.138.138,0,0,0-.277,0" transform="translate(-346.005 -80.854)" fill="#5446cf"/>
            <path id="Path_18115" data-name="Path 18115" d="M37.115,90.562a.881.881,0,1,1-.881-.881.882.882,0,0,1,.881.881m-.277,0a.6.6,0,1,0-.6.6.606.606,0,0,0,.6-.6" transform="translate(-29.651 -75.217)" fill="#6c5ef1"/>
            <path id="Path_18116" data-name="Path 18116" d="M60.614,57.471a.882.882,0,1,1-1.064-.649.883.883,0,0,1,1.064.649m-.269.065a.6.6,0,1,0-.446.73.606.606,0,0,0,.446-.73" transform="translate(-49.381 -47.637)" fill="#8380f9"/>
            <path id="Path_18117" data-name="Path 18117" d="M62.747,88.1a.138.138,0,0,0-.138.138v.61a.138.138,0,0,0,.276,0v-.61a.138.138,0,0,0-.138-.138" transform="translate(-52.512 -73.892)" fill="#5446cf"/>
            <path id="Path_18118" data-name="Path 18118" d="M62.747,81.483a.138.138,0,0,0-.138.138v.61a.138.138,0,1,0,.276,0v-.61a.138.138,0,0,0-.138-.138" transform="translate(-52.512 -68.342)" fill="#5446cf"/>
            <path id="Path_18119" data-name="Path 18119" d="M65.205,86.681h-.548a.138.138,0,0,0,0,.277h.548a.138.138,0,0,0,0-.277" transform="translate(-54.114 -72.702)" fill="#5446cf"/>
            <path id="Path_18120" data-name="Path 18120" d="M57.987,86.681h-.548a.138.138,0,0,0,0,.277h.548a.138.138,0,1,0,0-.277" transform="translate(-48.06 -72.702)" fill="#5446cf"/>
            <path id="Path_18121" data-name="Path 18121" d="M43.708,75.1a.138.138,0,0,0-.138.138v.61a.138.138,0,0,0,.276,0v-.61a.138.138,0,0,0-.138-.138" transform="translate(-36.543 -62.99)" fill="#5446cf"/>
            <path id="Path_18122" data-name="Path 18122" d="M43.708,68.485a.138.138,0,0,0-.138.138v.61a.138.138,0,1,0,.276,0v-.61a.138.138,0,0,0-.138-.138" transform="translate(-36.543 -57.44)" fill="#5446cf"/>
            <path id="Path_18123" data-name="Path 18123" d="M46.167,73.685h-.548a.138.138,0,0,0,0,.277h.548a.138.138,0,0,0,0-.277" transform="translate(-38.146 -61.802)" fill="#5446cf"/>
            <path id="Path_18124" data-name="Path 18124" d="M38.949,73.685H38.4a.138.138,0,0,0,0,.277h.548a.138.138,0,0,0,0-.277" transform="translate(-32.092 -61.802)" fill="#5446cf"/>
            <rect id="Rectangle_5084" data-name="Rectangle 5084" width="7.457" height="14.28" transform="translate(34.603 46.722)" fill="#2a3554"/>
            <path id="Path_18125" data-name="Path 18125" d="M185.965,361.337H161.3v-.451a3.022,3.022,0,0,1,3.022-3.022h18.616a3.022,3.022,0,0,1,3.022,3.022Z" transform="translate(-135.291 -300.151)" fill="#2a3554"/>
            <path id="Path_18126" data-name="Path 18126" d="M222.022,290.15l-7.457,1.421v-1.856h7.457Z" transform="translate(-179.962 -242.992)" fill="#161631"/>
            <path id="Path_18127" data-name="Path 18127" d="M130.756,82.314V114a.96.96,0,0,1-.96.96H81.7a.96.96,0,0,1-.96-.96V82.314a.96.96,0,0,1,.96-.96h48.1a.96.96,0,0,1,.96.96" transform="translate(-67.721 -68.234)" fill="#2a3554"/>
            <path id="Path_18128" data-name="Path 18128" d="M136.33,90.656v28.967a.974.974,0,0,1-.975.975H89.942a.936.936,0,0,1-.338-.062.971.971,0,0,1-.635-.913V90.656a.974.974,0,0,1,.973-.975h45.414a.964.964,0,0,1,.368.072.974.974,0,0,1,.607.9" transform="translate(-74.621 -75.218)" fill="#fff"/>
            <path id="Path_18129" data-name="Path 18129" d="M136.328,90.655V92.1H88.966V90.655a.974.974,0,0,1,.974-.974h45.414a.974.974,0,0,1,.974.974" transform="translate(-74.619 -75.218)" fill="#e3e3ff"/>
            <path id="Path_18130" data-name="Path 18130" d="M128.778,95.627h0a.319.319,0,0,0,.319.319h31.99a.319.319,0,1,0,0-.639H129.1a.319.319,0,0,0-.319.319" transform="translate(-108.01 -79.938)" fill="#fff"/>
            <path id="Path_18131" data-name="Path 18131" d="M103.111,95.6v.237a.088.088,0,0,1-.132.076l-.205-.118-.2-.118a.088.088,0,0,1,0-.153l.2-.118.205-.118a.088.088,0,0,1,.132.076Z" transform="translate(-85.99 -79.909)" fill="#2a3554"/>
            <path id="Path_18132" data-name="Path 18132" d="M112.777,95.6v.237a.088.088,0,0,0,.132.076l.205-.118.2-.118a.088.088,0,0,0,0-.153l-.2-.118-.205-.118a.088.088,0,0,0-.132.076Z" transform="translate(-94.59 -79.909)" fill="#2a3554"/>
            <path id="Path_18133" data-name="Path 18133" d="M354.685,94.711a.473.473,0,1,1-.473-.473.473.473,0,0,1,.473.473" transform="translate(-296.692 -79.04)" fill="#5446cf"/>
            <path id="Path_18134" data-name="Path 18134" d="M343.83,94.711a.473.473,0,1,1-.473-.473.473.473,0,0,1,.473.473" transform="translate(-287.587 -79.04)" fill="#6c5ef1"/>
            <path id="Path_18135" data-name="Path 18135" d="M365.541,94.711a.473.473,0,1,1-.473-.473.473.473,0,0,1,.473.473" transform="translate(-305.797 -79.04)" fill="#8380f9"/>
            <rect id="Rectangle_5085" data-name="Rectangle 5085" width="4.028" height="18.251" transform="translate(16.467 20.054)" fill="#e3e3ff"/>
            <rect id="Rectangle_5086" data-name="Rectangle 5086" width="4.028" height="1.211" transform="translate(16.467 20.054)" fill="#2a3554"/>
            <rect id="Rectangle_5087" data-name="Rectangle 5087" width="4.028" height="8.979" transform="translate(55.979 29.326)" fill="#e3e3ff"/>
            <rect id="Rectangle_5088" data-name="Rectangle 5088" width="4.028" height="1.288" transform="translate(55.979 29.326)" fill="#2a3554"/>
            <rect id="Rectangle_5089" data-name="Rectangle 5089" width="4.028" height="5.234" transform="translate(56.072 20.117)" fill="#e3e3ff"/>
            <rect id="Rectangle_5090" data-name="Rectangle 5090" width="4.028" height="1.288" transform="translate(56.072 20.117)" fill="#2a3554"/>
            <rect id="Rectangle_5091" data-name="Rectangle 5091" width="32.054" height="18.187" transform="translate(22.317 20.118)" fill="#e3e3ff"/>
            <rect id="Rectangle_5092" data-name="Rectangle 5092" width="9.905" height="9.905" transform="translate(36.751 25.186)" fill="#6c5ef1"/>
            <path id="Path_18136" data-name="Path 18136" d="M186.556,151.78a4.943,4.943,0,1,1-4.943-4.943,4.943,4.943,0,0,1,4.943,4.943" transform="translate(-148.179 -123.157)" fill="#8380f9"/>
            <path id="Path_18137" data-name="Path 18137" d="M189.983,176.351h-5.715l2.858-4.95,2.858-4.95,2.858,4.95,2.858,4.95Z" transform="translate(-154.551 -139.608)" fill="#5446cf"/>
            <rect id="Rectangle_5093" data-name="Rectangle 5093" width="32.054" height="1.561" transform="translate(22.317 20.118)" fill="#2a3554"/>
            <path id="Path_18138" data-name="Path 18138" d="M168.255,155.011a.076.076,0,0,1-.076-.076V140.573a.076.076,0,0,1,.153,0v14.362a.076.076,0,0,1-.076.076" transform="translate(-141.057 -117.839)" fill="#2a3554"/>
            <path id="Path_18139" data-name="Path 18139" d="M167.658,139.981a.232.232,0,1,1-.232-.232.232.232,0,0,1,.232.232" transform="translate(-140.231 -117.212)" fill="#2a3554"/>
            <path id="Path_18140" data-name="Path 18140" d="M167.658,228.818a.232.232,0,1,1-.232-.232.232.232,0,0,1,.232.232" transform="translate(-140.231 -191.722)" fill="#2a3554"/>
            <path id="Path_18141" data-name="Path 18141" d="M306.169,155.011a.076.076,0,0,1-.076-.076V140.573a.076.076,0,0,1,.153,0v14.362a.076.076,0,0,1-.076.076" transform="translate(-256.73 -117.839)" fill="#2a3554"/>
            <path id="Path_18142" data-name="Path 18142" d="M305.571,139.981a.232.232,0,1,1-.232-.232.232.232,0,0,1,.232.232" transform="translate(-255.903 -117.212)" fill="#2a3554"/>
            <path id="Path_18143" data-name="Path 18143" d="M305.571,228.818a.232.232,0,1,1-.232-.232.232.232,0,0,1,.232.232" transform="translate(-255.903 -191.722)" fill="#2a3554"/>
            <path id="Path_18144" data-name="Path 18144" d="M9.383,343.605l-.935,1.2a1.936,1.936,0,0,0,.863.952l1.118-1.383Z" transform="translate(-7.086 -288.192)" fill="#f5ab86"/>
            <path id="Path_18145" data-name="Path 18145" d="M2.07,350.614s.437-.091.587.055a24.728,24.728,0,0,0,.876,2.556c.351.433,0,.663-.219.75A30.983,30.983,0,0,1,0,351.086a6.634,6.634,0,0,1,1.135-1.215c.369-.2.543.534.935.743" transform="translate(0 -293.419)" fill="#8380f9"/>
            <path id="Path_18146" data-name="Path 18146" d="M13.041,360.326a.076.076,0,0,1-.042-.043.074.074,0,0,1,.046-.1,1.245,1.245,0,0,1,.584-.058.527.527,0,0,1,.405.362.075.075,0,0,1-.058.09.078.078,0,0,1-.094-.056.377.377,0,0,0-.29-.25,1.1,1.1,0,0,0-.494.054.082.082,0,0,1-.058,0" transform="translate(-10.899 -302.036)" fill="#fff"/>
            <path id="Path_18147" data-name="Path 18147" d="M12.82,358.428a.076.076,0,0,1-.042-.043.074.074,0,0,1,.046-.1,1.247,1.247,0,0,1,.584-.059.526.526,0,0,1,.405.362.075.075,0,0,1-.058.09.078.078,0,0,1-.094-.056.377.377,0,0,0-.29-.25,1.1,1.1,0,0,0-.494.053.081.081,0,0,1-.058,0" transform="translate(-10.713 -300.445)" fill="#fff"/>
            <path id="Path_18148" data-name="Path 18148" d="M13.819,362.354a.076.076,0,0,1-.042-.043.074.074,0,0,1,.046-.1,1.246,1.246,0,0,1,.584-.059.526.526,0,0,1,.405.362.075.075,0,0,1-.058.09.078.078,0,0,1-.094-.056.377.377,0,0,0-.29-.25,1.1,1.1,0,0,0-.494.053.081.081,0,0,1-.058,0" transform="translate(-11.551 -303.738)" fill="#fff"/>
            <path id="Path_18149" data-name="Path 18149" d="M18,241.957l-.844,8.015a19.854,19.854,0,0,0-1.914,2.79c-.678,1.234-3.563,5.648-3.563,5.648l1.38,1.129,7.2-8.081,1.593-9.582Z" transform="translate(-9.796 -202.868)" fill="#161642"/>
            <path id="Path_18150" data-name="Path 18150" d="M59.045,357.368l.142,1.555a2,2,0,0,0,1.3.158l-.132-1.818Z" transform="translate(-49.523 -299.648)" fill="#f5ab86"/>
            <path id="Path_18151" data-name="Path 18151" d="M59.372,365.274s.274-.378.5-.366a27.59,27.59,0,0,0,2.536,1.45c.587.1.479.536.375.758s-4.648.095-4.648.095a7.785,7.785,0,0,1-.024-1.884c.143-.417.808.052,1.265-.053" transform="translate(-48.688 -306.06)" fill="#8380f9"/>
            <path id="Path_18152" data-name="Path 18152" d="M71.182,368.821a.078.078,0,0,1-.1-.108,1.2,1.2,0,0,1,.379-.448.539.539,0,0,1,.553-.009.078.078,0,1,1-.085.131.384.384,0,0,0-.389.013,1.066,1.066,0,0,0-.318.382.078.078,0,0,1-.043.039" transform="translate(-59.614 -308.807)" fill="#fff"/>
            <path id="Path_18153" data-name="Path 18153" d="M69.656,367.549a.078.078,0,0,1-.1-.108,1.2,1.2,0,0,1,.379-.449.538.538,0,0,1,.553-.009.078.078,0,0,1-.085.131.384.384,0,0,0-.389.013,1.058,1.058,0,0,0-.318.382.078.078,0,0,1-.043.039" transform="translate(-58.334 -307.74)" fill="#fff"/>
            <path id="Path_18154" data-name="Path 18154" d="M73.2,369.8a.078.078,0,0,1-.1-.108,1.2,1.2,0,0,1,.379-.448.538.538,0,0,1,.553-.009.078.078,0,1,1-.085.131.384.384,0,0,0-.389.013,1.061,1.061,0,0,0-.318.382.077.077,0,0,1-.043.039" transform="translate(-61.311 -309.63)" fill="#fff"/>
            <path id="Path_18155" data-name="Path 18155" d="M23.687,243.817s1.684,5.988,3.874,9.218a30.207,30.207,0,0,0,.885,4.817c.245.732.866,5.094.866,5.094l.269-.039.16-.024,1.2-.173L30.4,252.329l-2.632-8.2-3.4-.261-.181-.013Z" transform="translate(-19.867 -204.497)" fill="#2a3554"/>
            <path id="Path_18156" data-name="Path 18156" d="M26.8,244.057l3.725,9.184c0,.011.556,2.5.869,4.258.281,1.559.689,4.275.8,5.611l.16-.024c-.111-1.348-.511-4.019-.8-5.615-.314-1.755-.871-4.251-.876-4.277l-3.7-9.123Z" transform="translate(-22.475 -204.698)" fill="#161642"/>
            <path id="Path_18157" data-name="Path 18157" d="M73.269,165.764a7.691,7.691,0,0,0,1.839,3.143,9.948,9.948,0,0,0,3.63,1.128,6.04,6.04,0,0,1,.135-1.475,8.514,8.514,0,0,1-2.784-1.246,17.645,17.645,0,0,1-1.649-6.32c-1.085,1.067-1.17,4.77-1.17,4.77" transform="translate(-61.453 -135.031)" fill="#6c5ef1"/>
            <path id="Path_18158" data-name="Path 18158" d="M22.77,160.259c-.006.058-.01.115-.016.171-.092,1.024-.159,1.818-.19,2.208a16.445,16.445,0,0,0,2.92.792l.133.022.072.011.158.024.176.026a15.845,15.845,0,0,0,2.023.148c.137,0,.274,0,.411,0h.026l.105,0,.064,0a16.65,16.65,0,0,0,2.391-.243c.018-.177.043-.439.073-.77.006-.061.011-.125.017-.191h0c.043-.473.094-1.062.149-1.728,0-.057.01-.114.015-.172.037-.443.075-.919.115-1.414,0-.057.009-.115.014-.173.04-.508.081-1.036.121-1.572.024-.327.049-.658.072-.989s.047-.671.07-1c0-.073.01-.145.015-.218a36.553,36.553,0,0,0,.151-6.4,3.472,3.472,0,0,0-.842-.833l-.144-.111c-.165-.125-1.547-.74-1.718-.863l-1.5-.243c-.01,0-1.5.359-1.5.363l-.2.09a8.587,8.587,0,0,0-1.447.787,1.456,1.456,0,0,0-.128.108.847.847,0,0,0-.079.084.476.476,0,0,0-.065.127,46.44,46.44,0,0,0-.882,6.07q-.033.3-.065.611-.014.134-.028.27c-.007.062-.014.124-.02.186l-.01.093q-.024.231-.047.46l-.035.339c-.144,1.426-.274,2.811-.376,3.941" transform="translate(-18.925 -123.066)" fill="#8380f9"/>
            <path id="Path_18159" data-name="Path 18159" d="M46.11,198.563a6.887,6.887,0,0,0,3.185,1.73.092.092,0,0,0,.113-.082v0a.091.091,0,0,0-.069-.1,6.7,6.7,0,0,1-3.1-1.685.091.091,0,0,0-.153.055v0a.091.091,0,0,0,.027.077" transform="translate(-38.651 -166.407)" fill="#6c5ef1"/>
            <path id="Path_18160" data-name="Path 18160" d="M46.147,190.318v0a.085.085,0,0,0,.013.042c.05.08.107.163.172.249a3.665,3.665,0,0,0,2.15,1.34.076.076,0,0,0,.022,0,.084.084,0,0,0,.016-.165,3.45,3.45,0,0,1-2.217-1.52.084.084,0,0,0-.155.049" transform="translate(-38.704 -159.552)" fill="#6c5ef1"/>
            <path id="Path_18161" data-name="Path 18161" d="M46.2,155.258v0a.084.084,0,0,0,.1.073,5.951,5.951,0,0,0,2.306-1.126,5.711,5.711,0,0,0,1.1-1.115A.084.084,0,0,0,49.57,153a6.024,6.024,0,0,1-3.3,2.173.082.082,0,0,0-.064.089" transform="translate(-38.751 -128.292)" fill="#6c5ef1"/>
            <path id="Path_18162" data-name="Path 18162" d="M50.627,109.6s.87-.217.845-.88c-.021-.564-.413-.279-.318-.71s-.08-.88-.592-.767a1.605,1.605,0,0,1-1.27-.064c-.838-.4-1.081.175-1.73.157-.957-.027-1.236.532-1.264.979a2.3,2.3,0,0,0,.276,1.025Z" transform="translate(-38.83 -89.773)" fill="#2a3554"/>
            <path id="Path_18163" data-name="Path 18163" d="M70.469,127.738s.4-.439.624-.025-.249,1.532-.868,1.192Z" transform="translate(-58.9 -106.968)" fill="#f88265"/>
            <path id="Path_18164" data-name="Path 18164" d="M71.038,130.778a.054.054,0,0,0,.056-.035.845.845,0,0,1,.518-.458.055.055,0,1,0-.029-.105.941.941,0,0,0-.591.524.055.055,0,0,0,.032.07l.015,0" transform="translate(-59.54 -109.184)" fill="#f8664d"/>
            <path id="Path_18165" data-name="Path 18165" d="M72.575,131.6a.054.054,0,0,0,.03-.006.055.055,0,0,0,.023-.074.5.5,0,0,0-.189-.183.055.055,0,1,0-.054.1.4.4,0,0,1,.146.139.054.054,0,0,0,.044.029" transform="translate(-60.689 -110.147)" fill="#f8664d"/>
            <path id="Path_18166" data-name="Path 18166" d="M45.333,125.322s-.311-.5-.609-.138-.032,1.552.638,1.329Z" transform="translate(-37.409 -104.884)" fill="#f88265"/>
            <path id="Path_18167" data-name="Path 18167" d="M46.011,128.232a.055.055,0,0,1-.049-.045.845.845,0,0,0-.426-.544.055.055,0,0,1,.048-.1.941.941,0,0,1,.486.623.055.055,0,0,1-.044.064h-.015" transform="translate(-38.167 -106.971)" fill="#f8664d"/>
            <path id="Path_18168" data-name="Path 18168" d="M46.177,129.279a.055.055,0,0,1-.038-.088.5.5,0,0,1,.219-.146.055.055,0,0,1,.035.1.4.4,0,0,0-.169.11.055.055,0,0,1-.048.021" transform="translate(-38.688 -108.232)" fill="#f8664d"/>
            <path id="Path_18169" data-name="Path 18169" d="M53.273,140.638l-.1,1.145s.288.615.747.7.917-.423.917-.423l.108-1.186Z" transform="translate(-44.594 -117.957)" fill="#f5ab86"/>
            <path id="Path_18170" data-name="Path 18170" d="M53.575,140.638l-.046.508c.279.372.821.508,1.647.463l.067-.737Z" transform="translate(-44.896 -117.957)" fill="#f88265"/>
            <path id="Path_18171" data-name="Path 18171" d="M47.91,115.172a11.094,11.094,0,0,0,.016,1.46h0a.015.015,0,0,0,0,0h0c.011.11.025.215.043.309.01.055.022.113.035.173.194.877.71,2.167,2.343,1.747a2.156,2.156,0,0,0,1.341-1.562c.014-.044.028-.087.041-.128s.017-.055.024-.081l.011-.039,0-.014v0a8.2,8.2,0,0,0,.256-1.557,1.2,1.2,0,0,0-.514-1.073,3.2,3.2,0,0,0-2.732-.338,1.2,1.2,0,0,0-.87,1.1" transform="translate(-40.17 -95.543)" fill="#f5ab86"/>
            <path id="Path_18172" data-name="Path 18172" d="M54.79,126.43c-.011.122.043.227.121.234s.15-.086.161-.209-.043-.227-.121-.234-.15.086-.161.209" transform="translate(-45.953 -105.865)" fill="#2a3554"/>
            <path id="Path_18173" data-name="Path 18173" d="M65.39,127.4c-.011.122.043.227.12.234s.15-.086.161-.209-.043-.227-.12-.234-.15.086-.161.209" transform="translate(-54.844 -106.676)" fill="#2a3554"/>
            <path id="Path_18174" data-name="Path 18174" d="M52.258,122.311a1.571,1.571,0,0,1,1.033-.059l-.04.251a2.879,2.879,0,0,0-.991.1.434.434,0,0,1,0-.293" transform="translate(-43.81 -102.478)" fill="#2a3554"/>
            <path id="Path_18175" data-name="Path 18175" d="M64.318,123.24a1.583,1.583,0,0,0-1.024-.194l.007.256a2.9,2.9,0,0,1,.976.23.438.438,0,0,0,.041-.292" transform="translate(-53.087 -103.178)" fill="#2a3554"/>
            <path id="Path_18176" data-name="Path 18176" d="M58.637,128.674a.587.587,0,0,1-.193-.059.055.055,0,0,1,.05-.1.329.329,0,0,0,.216.04.059.059,0,0,0,.031-.048,8.276,8.276,0,0,0,.043-.836.055.055,0,0,1,.109,0,8.046,8.046,0,0,1-.045.857.166.166,0,0,1-.091.126.229.229,0,0,1-.121.017" transform="translate(-48.994 -107.038)" fill="#f88265"/>
            <path id="Path_18177" data-name="Path 18177" d="M57.146,136.508a.653.653,0,0,1-.695.532.629.629,0,0,1-.585-.648Z" transform="translate(-46.857 -114.395)" fill="#fff"/>
            <path id="Path_18178" data-name="Path 18178" d="M47.91,115.172a11.186,11.186,0,0,0,.017,1.46l.245,0s-.025-.381-.03-.628-.009-.709.2-.747.139-.571.449-.771a1.356,1.356,0,0,1,1.369.1c.4.3.911.063,1.1.127a.536.536,0,0,1,.341.607c-.1.247.108.421.136.689a3.692,3.692,0,0,1-.2.96l.228.068a8.188,8.188,0,0,0,.256-1.557,1.2,1.2,0,0,0-.514-1.073,3.2,3.2,0,0,0-2.732-.338,1.2,1.2,0,0,0-.87,1.1" transform="translate(-40.171 -95.543)" fill="#2a3554"/>
            <path id="Path_18179" data-name="Path 18179" d="M62.573,125.874a.66.66,0,1,1,.6.717.661.661,0,0,1-.6-.717m.1.009a.557.557,0,1,0,.606-.5.558.558,0,0,0-.606.5" transform="translate(-52.479 -105.071)" fill="#fff"/>
            <path id="Path_18180" data-name="Path 18180" d="M51.431,124.858a.66.66,0,1,1,.6.717.661.661,0,0,1-.6-.717m.1.009a.557.557,0,1,0,.606-.5.558.558,0,0,0-.606.5" transform="translate(-43.134 -104.219)" fill="#fff"/>
            <path id="Path_18181" data-name="Path 18181" d="M70.407,126.586a.079.079,0,0,1-.024.106.876.876,0,0,0-.421.169.052.052,0,0,1-.072-.007.051.051,0,0,1,.007-.072.956.956,0,0,1,.51-.2" transform="translate(-58.61 -106.172)" fill="#fff"/>
            <path id="Path_18182" data-name="Path 18182" d="M48.5,124.533a.052.052,0,0,1-.045.019.05.05,0,0,1-.027-.011,1.6,1.6,0,0,0-.666-.3.069.069,0,0,1,0-.1,1.655,1.655,0,0,1,.73.325.052.052,0,0,1,.009.072" transform="translate(-40.036 -104.116)" fill="#fff"/>
            <path id="Path_18183" data-name="Path 18183" d="M59.054,126.516a.417.417,0,0,1,.3-.14.379.379,0,0,1,.254.191l.091-.048a.476.476,0,0,0-.336-.245.513.513,0,0,0-.385.175Z" transform="translate(-49.465 -105.908)" fill="#fff"/>
            <path id="Path_18184" data-name="Path 18184" d="M38.145,193.575l-.285-.585a.959.959,0,0,1,.443-1.282l16.547-8.05,1.123,2.309-16.547,8.05a.959.959,0,0,1-1.281-.443" transform="translate(-31.673 -154.04)" fill="#5446cf"/>
            <rect id="Rectangle_5094" data-name="Rectangle 5094" width="3.833" height="2.568" transform="translate(23.177 29.618) rotate(-25.942)" fill="#8380f9"/>
            <path id="Path_18185" data-name="Path 18185" d="M169.6,163.073a5.063,5.063,0,0,1-3.393.648l-1.124-2.309a4.257,4.257,0,0,1,2.287-1.876,4.021,4.021,0,0,1,.816-.116h0c1.909-.055,1.625,1.759,4.513-.286a8.168,8.168,0,0,1-3.1,3.939" transform="translate(-138.463 -133.471)" fill="#fff"/>
            <path id="Path_18186" data-name="Path 18186" d="M185.751,163.073c-.974-.148-.909-1.8-.738-2.451.2-.778-.64-1.186-.674-1.2,1.909-.055,1.625,1.759,4.513-.286a8.168,8.168,0,0,1-3.1,3.939" transform="translate(-154.61 -133.471)" fill="#5446cf"/>
            <path id="Path_18187" data-name="Path 18187" d="M55.161,225.2l.239.109a.573.573,0,0,0,.616-.1,3.4,3.4,0,0,1,.273-.227,1.45,1.45,0,0,1,.716-.163c.117.045,0,.247-.124.3a2.119,2.119,0,0,0-.433.216c-.128.1.375.653.6.832s.734.247.681.477-.4.108-.4.108.011.235-.339.264a.282.282,0,0,1-.261.225.315.315,0,0,1-.324.211c-.237-.034-.974-.143-1.895-1.5Z" transform="translate(-45.718 -188.55)" fill="#f5ab86"/>
            <path id="Path_18188" data-name="Path 18188" d="M26.129,167.031a38.188,38.188,0,0,1-4.474-4.246s.2-1.743.409-3.138a12.787,12.787,0,0,0,.129-2.732,4.872,4.872,0,0,0-.211-1.3s-.984.289-1.628,3.565a33.884,33.884,0,0,0-.546,3.937,1.49,1.49,0,0,0,.316,1.033A12.109,12.109,0,0,0,25.282,168a3.107,3.107,0,0,0,.847-.966" transform="translate(-16.61 -130.516)" fill="#6c5ef1"/>
            <path id="Path_18189" data-name="Path 18189" d="M109.677,208.4s-.52-.421-.833-.4.3.7.3.7-.744-.814-.973-.674.472.952.472.952-.588-.475-.774-.385.3.7.3.7-.5-.329-.653-.276.2.619.475.834.479-.205.479-.205.383-.153.408-.346c0,0,.375-.1.471-.3,0,0,.561-.225.329-.6" transform="translate(-90.147 -174.448)" fill="#f5ab86"/>
            <rect id="Rectangle_5095" data-name="Rectangle 5095" width="3.108" height="24.932" transform="translate(63.036 35.002) rotate(-5.9)" fill="#6c5ef1"/>
            <rect id="Rectangle_5096" data-name="Rectangle 5096" width="0.207" height="24.932" transform="translate(63.568 34.947) rotate(-5.9)" fill="#5446cf"/>
            <rect id="Rectangle_5097" data-name="Rectangle 5097" width="0.207" height="24.932" transform="translate(64.478 34.853) rotate(-5.9)" fill="#5446cf"/>
            <rect id="Rectangle_5098" data-name="Rectangle 5098" width="0.207" height="24.932" transform="translate(65.389 34.759) rotate(-5.899)" fill="#5446cf"/>
            <rect id="Rectangle_5099" data-name="Rectangle 5099" width="3.108" height="1.304" transform="matrix(0.995, -0.103, 0.103, 0.995, 65.464, 58.506)" fill="#2a3554"/>
            <path id="Path_18190" data-name="Path 18190" d="M406.763,369.162l.038.369a1.554,1.554,0,1,0,3.092-.319l-.038-.369Z" transform="translate(-341.165 -309.36)" fill="#8380f9"/>
            <path id="Path_18191" data-name="Path 18191" d="M393.964,196.453l-3.091.319.7-2.171.146-.452.414-1.276.623,1.221.243.475Z" transform="translate(-327.837 -161.77)" fill="#f5ab86"/>
            <path id="Path_18192" data-name="Path 18192" d="M397.179,194.1a1.611,1.611,0,0,1-.485.122,1.119,1.119,0,0,1-.553-.067l.414-1.275Z" transform="translate(-332.256 -161.77)" fill="#2a3554"/>
            <path id="Path_18193" data-name="Path 18193" d="M268.156,45.207s-.895,4.04-2.039,5.351h1.675a3.379,3.379,0,0,0,1.259-2.338,6.717,6.717,0,0,0-.9-3.013" transform="translate(-223.2 -37.916)" fill="#6c5ef1"/>
            <path id="Path_18194" data-name="Path 18194" d="M273.67,5.953q-1.651.582-3.313,1.135a1.138,1.138,0,0,1-1.407-.642l0-.009c-.368-.876-1.125-1.875-1.287-2.327l0-.006c-.033-.073-.063-.147-.09-.22A2.737,2.737,0,0,1,269.6.055a2.658,2.658,0,0,1,2.936,1.354s.407.847.7,1.463a2.616,2.616,0,0,0,.8,1.1,1.136,1.136,0,0,1-.321,1.967l-.039.014" transform="translate(-224.248 0.001)" fill="#2a3554"/>
            <path id="Path_18195" data-name="Path 18195" d="M279.056,41.766a4.57,4.57,0,0,0,0,2.059,3.744,3.744,0,0,0,.42.914.741.741,0,0,0,.038.067l.015.12a3.842,3.842,0,0,1,.091,1.31h5.246l-.122-6.6-1.657-.146h0l-.285-.026-.016,0-.447-.04-.117-.01a4.2,4.2,0,0,0-1.766.274l-.019.006-.249.1-.014.006-.244.093-1.166.451c.059.263.245,1.156.3,1.421" transform="translate(-233.803 -33.054)" fill="#8380f9"/>
            <path id="Path_18196" data-name="Path 18196" d="M283.219,70.82c.005.04.01.08.015.12a6.386,6.386,0,0,0,2.724-.179q.3-.072.629-.169a.085.085,0,1,0-.048-.163,6.493,6.493,0,0,1-3.354.324h0l.038.068" transform="translate(-237.513 -59.068)" fill="#6c5ef1"/>
            <path id="Path_18197" data-name="Path 18197" d="M271.167,23.96s-.488-.306-.612.136.6,1.355,1.122.883Z" transform="translate(-226.911 -20.009)" fill="#f88265"/>
            <path id="Path_18198" data-name="Path 18198" d="M274.528,30.56a.119.119,0,1,1-.152-.072.119.119,0,0,1,.152.072" transform="translate(-230.061 -25.566)" fill="#fff"/>
            <path id="Path_18199" data-name="Path 18199" d="M272.272,26.953a.055.055,0,0,1-.063-.018.831.831,0,0,0-.61-.292.052.052,0,0,1-.053-.053.056.056,0,0,1,.056-.052.926.926,0,0,1,.7.335.052.052,0,0,1-.014.073l-.013.007" transform="translate(-227.755 -22.258)" fill="#f8664d"/>
            <path id="Path_18200" data-name="Path 18200" d="M273.12,27.368a.057.057,0,0,1-.031,0,.051.051,0,0,1-.04-.062.494.494,0,0,1,.141-.218.056.056,0,0,1,.077,0,.051.051,0,0,1,0,.074.393.393,0,0,0-.109.166.056.056,0,0,1-.035.038" transform="translate(-229.014 -22.708)" fill="#f8664d"/>
            <path id="Path_18201" data-name="Path 18201" d="M286.738,32.248l.456,1.276a2.8,2.8,0,0,1-.878.875c-.448.205-.8-.283-.8-.283l-.424-1.188Z" transform="translate(-239.113 -27.047)" fill="#f5ab86"/>
            <path id="Path_18202" data-name="Path 18202" d="M287.015,33.023l.182.509c-.187.455-.695.774-1.554.945l-.277-.774Z" transform="translate(-239.345 -27.697)" fill="#f88265"/>
            <path id="Path_18203" data-name="Path 18203" d="M271.457,10.412c.059.118.121.237.188.354.443.777,1.288,1.486,2,1.4,1.547-.186,1.74-1.523,1.672-2.434-.008-.1-.093-.19-.112-.306a8.891,8.891,0,0,0-.125-.9c-.055-.206-.114-.408-.17-.59a1.245,1.245,0,0,0-1.136-.89,3.116,3.116,0,0,0-2.572,1.016,1.256,1.256,0,0,0-.219,1.206,9.417,9.417,0,0,0,.469,1.148" transform="translate(-227.229 -5.904)" fill="#f5ab86"/>
            <path id="Path_18204" data-name="Path 18204" d="M284.663,23.218a.059.059,0,0,0-.03-.114l-.2.036.013-.794a.059.059,0,1,0-.118,0l-.015.938.343-.061.009,0" transform="translate(-238.459 -18.692)" fill="#f88265"/>
            <path id="Path_18205" data-name="Path 18205" d="M270.914,7.714c-.468.455-.053,1.056-.123,1.457,0,.026-.016.035-.033.028a9.285,9.285,0,0,1-.48-1.169,1.273,1.273,0,0,1,.244-1.236,3.384,3.384,0,0,1,2.713-1.068,1.267,1.267,0,0,1,1.183.9c.056.185.116.392.172.6-.073.088-.291.195-.247.347.116.4.193.681.1.687-.153.01-.41-.438-.362-.8a1.415,1.415,0,0,0-.8-.177,10.69,10.69,0,0,1-1.54-.17,1.277,1.277,0,0,1-.465-.194,1.259,1.259,0,0,1-.367.8" transform="translate(-226.634 -4.801)" fill="#2a3554"/>
            <path id="Path_18206" data-name="Path 18206" d="M278.834,22.839c.044.122.016.244-.062.272s-.176-.049-.22-.171-.016-.244.062-.272.176.049.22.171" transform="translate(-233.612 -19.007)" fill="#2a3554"/>
            <path id="Path_18207" data-name="Path 18207" d="M288.28,19.464c.044.122.016.244-.062.272s-.176-.049-.22-.171-.016-.244.062-.272.176.049.22.171" transform="translate(-241.535 -16.176)" fill="#2a3554"/>
            <path id="Path_18208" data-name="Path 18208" d="M275.052,19.923a2.872,2.872,0,0,1,.569-.259.106.106,0,0,1,.143.064h0a.1.1,0,0,1-.079.1,3.28,3.28,0,0,0-.786.338.111.111,0,0,1,.011-.1.361.361,0,0,1,.142-.141" transform="translate(-230.559 -16.487)" fill="#2a3554"/>
            <path id="Path_18209" data-name="Path 18209" d="M286.426,16.428a2.881,2.881,0,0,0-.607.151.106.106,0,0,0-.072.139h0a.1.1,0,0,0,.125.03,3.275,3.275,0,0,1,.825-.225c0-.031-.035-.056-.073-.074a.361.361,0,0,0-.2-.022" transform="translate(-239.657 -13.775)" fill="#2a3554"/>
            <path id="Path_18210" data-name="Path 18210" d="M283.409,29.11a.671.671,0,0,0,.837.325.646.646,0,0,0,.439-.781Z" transform="translate(-237.704 -24.033)" fill="#fff"/>
            <path id="Path_18211" data-name="Path 18211" d="M287.595,34.216a.579.579,0,0,1-.282.017.058.058,0,0,1,.024-.113.467.467,0,0,0,.219-.012.49.49,0,0,0,.188-.134.058.058,0,0,1,.09.073.605.605,0,0,1-.239.169" transform="translate(-240.939 -28.477)" fill="#f88265"/>
            <path id="Path_18212" data-name="Path 18212" d="M295.792,14.663s.221-.614.574-.354.388,1.386-.265,1.341Z" transform="translate(-248.09 -11.948)" fill="#f5ab86"/>
            <path id="Path_18213" data-name="Path 18213" d="M298.759,21.9a.119.119,0,1,1-.152-.072.119.119,0,0,1,.152.072" transform="translate(-250.385 -18.304)" fill="#fff"/>
            <path id="Path_18214" data-name="Path 18214" d="M297.42,16.966a.051.051,0,0,0,.034-.051.784.784,0,0,1,.257-.587.051.051,0,0,0-.066-.077.872.872,0,0,0-.292.672.05.05,0,0,0,.054.047l.014,0" transform="translate(-249.398 -13.619)" fill="#f88265"/>
            <path id="Path_18215" data-name="Path 18215" d="M298.043,18.178a.051.051,0,0,0,.023-.017.051.051,0,0,0-.009-.071.463.463,0,0,0-.231-.08.051.051,0,0,0-.008.1.368.368,0,0,1,.177.06.05.05,0,0,0,.048.008" transform="translate(-249.75 -15.106)" fill="#f88265"/>
            <path id="Path_18216" data-name="Path 18216" d="M269.3,74.835l-18.283.007.044,21.9,17.416-20.915Zm-15.535,2.75,9.676,0-9.653,11.593Z" transform="translate(-210.54 -62.766)" fill="#8380f9"/>
            <path id="Path_18217" data-name="Path 18217" d="M252.794,183.184v-.215h.932v.215Z" transform="translate(-212.025 -153.461)" fill="#2a3554"/>
            <path id="Path_18218" data-name="Path 18218" d="M252.778,175.459v-.215h.932v.215Z" transform="translate(-212.012 -146.982)" fill="#2a3554"/>
            <path id="Path_18219" data-name="Path 18219" d="M252.763,167.735v-.215h.932v.215Z" transform="translate(-211.999 -140.504)" fill="#2a3554"/>
            <path id="Path_18220" data-name="Path 18220" d="M252.747,160.011V159.8h.932v.215Z" transform="translate(-211.986 -134.025)" fill="#2a3554"/>
            <path id="Path_18221" data-name="Path 18221" d="M252.732,152.286v-.215h.932v.215Z" transform="translate(-211.973 -127.546)" fill="#2a3554"/>
            <path id="Path_18222" data-name="Path 18222" d="M252.716,144.562v-.215h.932v.215Z" transform="translate(-211.96 -121.068)" fill="#2a3554"/>
            <path id="Path_18223" data-name="Path 18223" d="M252.7,136.837v-.215h.932v.215Z" transform="translate(-211.947 -114.589)" fill="#2a3554"/>
            <path id="Path_18224" data-name="Path 18224" d="M252.686,129.113V128.9h.932v.215Z" transform="translate(-211.935 -108.11)" fill="#2a3554"/>
            <path id="Path_18225" data-name="Path 18225" d="M252.67,121.389v-.215h.932v.215Z" transform="translate(-211.922 -101.632)" fill="#2a3554"/>
            <path id="Path_18226" data-name="Path 18226" d="M252.654,113.664v-.215h.932v.215Z" transform="translate(-211.909 -95.153)" fill="#2a3554"/>
            <path id="Path_18227" data-name="Path 18227" d="M252.639,105.94v-.215h.932v.215Z" transform="translate(-211.896 -88.674)" fill="#2a3554"/>
            <path id="Path_18228" data-name="Path 18228" d="M252.624,98.215V98h.932v.215Z" transform="translate(-211.883 -82.195)" fill="#2a3554"/>
            <path id="Path_18229" data-name="Path 18229" d="M252.608,90.491v-.215h.932v.215Z" transform="translate(-211.87 -75.717)" fill="#2a3554"/>
            <path id="Path_18230" data-name="Path 18230" d="M252.593,82.767v-.215h.932v.215Z" transform="translate(-211.857 -69.239)" fill="#2a3554"/>
            <path id="Path_18231" data-name="Path 18231" d="M269.3,74.835l-18.283.007,0,.989,17.457-.007Z" transform="translate(-210.54 -62.766)" fill="#6c5ef1"/>
            <path id="Path_18232" data-name="Path 18232" d="M279.242,84.465l-.246.017a.538.538,0,0,1-.507-.292,3.233,3.233,0,0,0-.164-.29,1.36,1.36,0,0,0-.574-.381c-.118,0-.081.217.008.307a1.973,1.973,0,0,1,.308.334c.079.13-.546.449-.8.531s-.727-.027-.756.193.317.229.317.229-.088.2.21.345a.265.265,0,0,0,.154.284.3.3,0,0,0,.215.293c.219.049.9.2,2.163-.69Z" transform="translate(-231.913 -70.05)" fill="#f5ab86"/>
            <path id="Path_18233" data-name="Path 18233" d="M292.745,49.7a11.841,11.841,0,0,0,5.344-1.976s.5-.317.5-.319h0a15.654,15.654,0,0,0-1-4.113c-.289-.964-.67-2.125-1.469-2.45a3.057,3.057,0,0,0-.419,1.2,6.187,6.187,0,0,0,.344,2.162c.226.673.383,1.533.59,2.206l.02.092c-.025.007-.878.479-2.041,1.015-1.274.587-2.289,1.167-2.289,1.167Z" transform="translate(-245.183 -34.259)" fill="#6c5ef1"/>
            <path id="Path_18234" data-name="Path 18234" d="M265.943,73.655s-.148.632-.4.806-.185-.711-.185-.711-.087,1.067-.346,1.095-.2-1.011-.2-1.011-.169.714-.365.755-.187-.72-.187-.72-.191.552-.336.6-.214-.594-.131-.921.489-.127.489-.127.385-.11.518.023c0,0,.345-.149.538-.052,0,0,.564-.161.608.263" transform="translate(-221.219 -61.529)" fill="#f5ab86"/>
            <path id="Path_18235" data-name="Path 18235" d="M271.278,301.226v4.24H252.067a1.094,1.094,0,0,1-1.094-1.095V302.32a1.094,1.094,0,0,1,1.094-1.094Z" transform="translate(-210.499 -252.647)" fill="#8380f9"/>
            <path id="Path_18236" data-name="Path 18236" d="M280.966,304.553v3.167H263.535a1.011,1.011,0,0,1-1.012-1.011v-1.142a1.012,1.012,0,0,1,1.012-1.013Z" transform="translate(-220.186 -255.438)" fill="#fff"/>
            <rect id="Rectangle_5100" data-name="Rectangle 5100" width="16.673" height="0.279" transform="translate(44.107 49.758)" fill="#ccf"/>
            <rect id="Rectangle_5101" data-name="Rectangle 5101" width="16.673" height="0.279" transform="translate(44.107 50.559)" fill="#ccf"/>
            <rect id="Rectangle_5102" data-name="Rectangle 5102" width="16.673" height="0.279" transform="translate(44.107 51.36)" fill="#ccf"/>
            <path id="Path_18237" data-name="Path 18237" d="M253.611,327.517v4.24H234.4a1.094,1.094,0,0,1-1.095-1.094v-2.051a1.094,1.094,0,0,1,1.095-1.094Z" transform="translate(-195.681 -274.699)" fill="#6c5ef1"/>
            <path id="Path_18238" data-name="Path 18238" d="M263.3,330.843v3.167H245.868A1.011,1.011,0,0,1,244.857,333v-1.142a1.012,1.012,0,0,1,1.011-1.013Z" transform="translate(-205.369 -277.488)" fill="#fff"/>
            <rect id="Rectangle_5103" data-name="Rectangle 5103" width="16.673" height="0.279" transform="translate(41.258 53.998)" fill="#ccf"/>
            <rect id="Rectangle_5104" data-name="Rectangle 5104" width="16.673" height="0.279" transform="translate(41.258 54.799)" fill="#ccf"/>
            <rect id="Rectangle_5105" data-name="Rectangle 5105" width="16.673" height="0.279" transform="translate(41.258 55.6)" fill="#ccf"/>
            <path id="Path_18239" data-name="Path 18239" d="M277.053,353.807v4.24H257.843a1.094,1.094,0,0,1-1.095-1.094V354.9a1.1,1.1,0,0,1,1.095-1.095Z" transform="translate(-215.342 -296.749)" fill="#5446cf"/>
            <path id="Path_18240" data-name="Path 18240" d="M286.741,357.134V360.3H269.31a1.011,1.011,0,0,1-1.011-1.012v-1.142a1.012,1.012,0,0,1,1.011-1.013Z" transform="translate(-225.031 -299.539)" fill="#fff"/>
            <rect id="Rectangle_5106" data-name="Rectangle 5106" width="16.673" height="0.279" transform="translate(45.038 58.238)" fill="#ccf"/>
            <rect id="Rectangle_5107" data-name="Rectangle 5107" width="16.673" height="0.279" transform="translate(45.038 59.038)" fill="#ccf"/>
            <rect id="Rectangle_5108" data-name="Rectangle 5108" width="16.673" height="0.279" transform="translate(45.038 59.84)" fill="#ccf"/>
            <path id="Path_18241" data-name="Path 18241" d="M152.961,38.963l.077-.983-.9-.07a2.2,2.2,0,0,0-.189-.569l.725-.619-.641-.75-.7.6a2.212,2.212,0,0,0-.63-.346l.07-.9-.984-.077-.067.859a2.2,2.2,0,0,0-.843.269l-.6-.7-.75.641.619.725a2.177,2.177,0,0,0-.276.533l-.9-.071-.077.984.859.067a2.205,2.205,0,0,0,.269.843l-.614.525.641.75.636-.543a2.2,2.2,0,0,0,.694.327l-.067.859.983.077.071-.9a2.222,2.222,0,0,0,.777-.305l.6.707.75-.642-.655-.766a2.193,2.193,0,0,0,.259-.594Zm-2.1-.577a.9.9,0,1,1-.831-.972.905.905,0,0,1,.831.972" transform="translate(-123.206 -29.566)" fill="#ccf"/>
            <path id="Path_18242" data-name="Path 18242" d="M157.978,45.041a1.523,1.523,0,1,0,1.523,1.523,1.523,1.523,0,0,0-1.523-1.523m.9,1.556a.9.9,0,1,1-.831-.972.905.905,0,0,1,.831.972" transform="translate(-131.224 -37.777)" fill="#b6b6ef"/>
            <path id="Path_18243" data-name="Path 18243" d="M413.335,131.219a2.193,2.193,0,0,0-.594.259l-.766-.655-.642.75.707.6a2.215,2.215,0,0,0-.305.777l-.9.071.077.983.859-.067a2.2,2.2,0,0,0,.327.694l-.543.636.75.641.525-.614a2.206,2.206,0,0,0,.843.269l.067.859.984-.077-.071-.9a2.178,2.178,0,0,0,.533-.276l.725.619.641-.75-.7-.6a2.207,2.207,0,0,0,.269-.843l.859-.067-.077-.984-.9.07a2.212,2.212,0,0,0-.346-.63l.6-.7-.75-.641-.619.724a2.2,2.2,0,0,0-.569-.189l-.071-.9-.983.077Zm1.482,2.071a.9.9,0,1,1-.972-.831.905.905,0,0,1,.972.831" transform="translate(-344.582 -109.272)" fill="#ccf"/>
            <path id="Path_18244" data-name="Path 18244" d="M421.771,139.923a1.523,1.523,0,1,0,1.523,1.523,1.523,1.523,0,0,0-1.523-1.523m.939,1.452a.9.9,0,1,1-.972-.831.905.905,0,0,1,.972.831" transform="translate(-352.475 -117.358)" fill="#b6b6ef"/>
            <path id="Path_18245" data-name="Path 18245" d="M113.966,286.614a.655.655,0,0,1-.395.146.991.991,0,0,1-.278-.019,1.539,1.539,0,0,1-.382-.128,9.708,9.708,0,0,0-.993-4.4c-1.055-1.8-2.451-4.278-1.334-5.551s2.916.5,3.506,3.475a19.251,19.251,0,0,1-.124,6.481" transform="translate(-92.405 -231.692)" fill="#6c5ef1"/>
            <path id="Path_18246" data-name="Path 18246" d="M120.415,297.406a.991.991,0,0,1-.278-.019,15.488,15.488,0,0,0-1.784-8.243.139.139,0,1,1,.239-.143,15.763,15.763,0,0,1,1.823,8.4" transform="translate(-99.249 -242.337)" fill="#5446cf"/>
            <path id="Path_18247" data-name="Path 18247" d="M138.9,290.993c-2.468,3.99-2.3,4.912-2.3,4.912l-.324-.058L136,295.8l-.393-.07c-.219-1.769,1.141-9.249,3.563-9.249,2.467,0,.567,3.155-.274,4.513" transform="translate(-113.719 -240.28)" fill="#6c5ef1"/>
            <path id="Path_18248" data-name="Path 18248" d="M140.967,299.146a23.359,23.359,0,0,0-2.528,7.15l-.276-.048a23.73,23.73,0,0,1,2.56-7.239.14.14,0,0,1,.244.138" transform="translate(-115.882 -250.728)" fill="#5446cf"/>
            <path id="Path_18249" data-name="Path 18249" d="M105.364,309.175l-.284.076-.272.074-.163.044a15.094,15.094,0,0,0-1.85-2.66c-.717-.959-2.629-3.537-.876-3.97,1.608-.4,3.491,5.1,3.444,6.437" transform="translate(-84.88 -253.898)" fill="#6c5ef1"/>
            <path id="Path_18250" data-name="Path 18250" d="M110.413,316.408l-.272.074a16.871,16.871,0,0,0-2.555-5.008.14.14,0,1,1,.224-.167,16.819,16.819,0,0,1,2.6,5.1" transform="translate(-90.213 -261.055)" fill="#5446cf"/>
            <path id="Path_18251" data-name="Path 18251" d="M119.631,344.586h-5.519v-6.029a.657.657,0,0,1,.657-.657h4.206a.657.657,0,0,1,.657.657Z" transform="translate(-95.709 -283.407)" fill="#8380f9"/>
            <path id="Path_18252" data-name="Path 18252" d="M173.263,296.721l1.624,1.107a.45.45,0,0,0,.625-.119l2.8-4.113,1.16-1.7-2.367-1.614-.687,1.008-3.277,4.807a.449.449,0,0,0,.118.625" transform="translate(-145.156 -243.468)" fill="#8380f9"/>
            <path id="Path_18253" data-name="Path 18253" d="M193.872,291.29a6.2,6.2,0,0,0,1.894,2.307l1.16-1.7-2.367-1.614Z" transform="translate(-162.606 -243.468)" fill="#6c5ef1"/>
            <path id="Path_18254" data-name="Path 18254" d="M146.007,338.253l.247.169a.739.739,0,0,0,1.027-.194l4.561-6.69-1.469-1-4.561,6.69a.739.739,0,0,0,.194,1.027" transform="translate(-122.19 -277.23)" fill="#2a3554"/>
            <path id="Path_18255" data-name="Path 18255" d="M182.285,211.623a8.057,8.057,0,1,0,11.206-2.062,8.057,8.057,0,0,0-11.206,2.062m1.017.7a6.821,6.821,0,1,1,1.745,9.487,6.829,6.829,0,0,1-1.745-9.487" transform="translate(-151.694 -174.571)" fill="#445279"/>
            <g id="Group_34845" data-name="Group 34845" transform="translate(30.403 34.801)" opacity="0.5">
              <g id="Group_34844" data-name="Group 34844">
                <g id="Group_34843" data-name="Group 34843" clip-path="url(#clip-path-3)">
                  <path id="Path_18256" data-name="Path 18256" d="M188.666,221.229a6.785,6.785,0,1,0,.259-.918,6.829,6.829,0,0,0-.259.918" transform="translate(-188.522 -215.797)" fill="#fff"/>
                </g>
              </g>
            </g>
            <g id="Group_34848" data-name="Group 34848" transform="translate(33.846 34.801)" opacity="0.5">
              <g id="Group_34847" data-name="Group 34847">
                <g id="Group_34846" data-name="Group 34846" clip-path="url(#clip-path-4)">
                  <path id="Path_18257" data-name="Path 18257" d="M209.872,216.7l7.46,11.382a6.8,6.8,0,0,0,2.3-3.053l-6.044-9.221a6.794,6.794,0,0,0-3.718.892" transform="translate(-209.872 -215.797)" fill="#fff"/>
                </g>
              </g>
            </g>
            <g id="Group_34851" data-name="Group 34851" transform="translate(30.806 37.256)" opacity="0.5">
              <g id="Group_34850" data-name="Group 34850">
                <g id="Group_34849" data-name="Group 34849" clip-path="url(#clip-path-5)">
                  <path id="Path_18258" data-name="Path 18258" d="M191.019,233.076l5.974,9.115a6.767,6.767,0,0,0,2.36-.261L192.2,231.016a6.769,6.769,0,0,0-1.181,2.06" transform="translate(-191.019 -231.016)" fill="#fff"/>
                </g>
              </g>
            </g>
          </g>
        </g>
      </g>
    </g>
  </g>
</svg>
